<svg xmlns="http://www.w3.org/2000/svg" aria-labelledby="ambient-title ambient-desc" class="thermal-map" style="overflow:visible;opacity:.62" viewBox="0 0 900 1050"><title id="ambient-title">Project DELTΔ synthetische Nederlandkaart</title><desc id="ambient-desc">Kadaster / PDOK - BRK Bestuurlijke Gebieden 2026; wateruitsparingen: Kadaster / PDOK - BRT TOP10NL waterdeel_vlak en registratief_gebied_vlak territoriale zee; licentie CC BY 4.0. Outline, bestuurlijke grenzen en wateruitsparingen zijn brondata; de thermische kleurlaag is synthetische Project DELTΔ-beeldtaal.</desc><defs><linearGradient id="thermal-gradient" x1="0%" x2="100%" y1="18%" y2="82%"><stop offset="0%" stop-color="#03f"/><stop offset="14%" stop-color="#0079c8"/><stop offset="28%" stop-color="#00b7c7"/><stop offset="43%" stop-color="#36b34a"/><stop offset="58%" stop-color="#ffe34d"/><stop offset="74%" stop-color="#ff8b1a"/><stop offset="100%" stop-color="#e21b23"/></linearGradient><linearGradient id="thermal-alt-gradient" x1="10%" x2="96%" y1="96%" y2="10%"><stop offset="0%" stop-color="#0099d8" stop-opacity=".8"/><stop offset="30%" stop-color="#2fbf65" stop-opacity=".7"/><stop offset="55%" stop-color="#ffd84d" stop-opacity=".7"/><stop offset="78%" stop-color="#ff5a1f" stop-opacity=".7"/><stop offset="100%" stop-color="#e21b23" stop-opacity=".9"/></linearGradient><linearGradient id="scan-gradient" x1="0%" x2="100%" y1="0%" y2="0%"><stop offset="0%" stop-color="#e21b23" stop-opacity="0"/><stop offset="34%" stop-color="#e21b23" stop-opacity=".3"/><stop offset="52%" stop-color="#f4f1ea" stop-opacity=".4"/><stop offset="70%" stop-color="#21468b" stop-opacity=".3"/><stop offset="100%" stop-color="#13b9ff" stop-opacity="0"/></linearGradient><clipPath id="land-clip"><path d="m588.5 668.6 2.8-2.5 3.1-2 1.9-2.4-1.6-3.2-2-3.1 1-3-2.6-2.5-3.4-1.8v-3.5l.9-2.9 2.7-1.5 3.5 1.2 3.6-.4 2.9-2.5 2.9-1.2 3.4-1.8 1.9-2.7 2.5-1.7 2.4 1.9 2.6 2 2.9 1h3.3l3.7.6 2.9.9 1.3-3.1-.1-3.2-3.2-2-1.2-3.6-2.3-2.9-3.5-1.4 1.8-2.4 3.5-.5 3.5-1.2 3.2 1.7 2.4 2.2-.1 3.6 2.3 2.3 2.6 1.8 3.1.4 3.7-.1 3.6.2 2.9-2.1 3.4 1.4 2 2.6 1 3.7 3.5-.1 3.7.2 3.5 1.2 1 3.4 3.1.6 3.2 1.5 2.6-1.8-.8-3.3-.7-3.3-2.5-2.6 1.5-2.7 3.2.8 3.3 1.3 3.2 1.1 3.2 1.4 3.2.7 3.5-1.3 2.4-2.7 3.5-1.7 3.1-2 2.7-2 3.4-.4 3.1-1.9 3.9-1.4 3.1-1 3-.3 3.1-1.9 2.9-1.4 2.7-1.6 3.4.4 2.4 2.7 2.3 2.1 3.6.4 2.9-2.4 2.5-2.6 2.8-1.5 2.3-2.6 2-3.2.5-3.7.4-3.6 3.4-1.7 2.9-.9.2-3-.2-3.2-1.5-2.7-3-.4-1.7-3-3.1-2.5-3-2.2-2.7-2.8-2.7-1.5-3.4-1.7-3.6-1.1h-3.1l-.9-3.3.9-3.5.4-3 3.3-.9 3.2-.5 3.3-1.9.7-3.1 2-2.8.6-3.8.3-3.1h6.6l3.8.1h3l3.2-.3 3-.9 2.6-2.3 1-3.4.9-3.7 1.7-3.2 2.4-2.1 1.8-3.2 3-.5 4-.7 2.5-1.8 1.2-2.8 1.7-2.9 1.7-3.3 1.1-3.4 3.6-1.7 3.4 1.1 3.1-.6 3-1.4 2.8-2.2-1.2-3-2.3-2.3-1.5-2.8-1.8-3.6-.1-3.1-.5-3.3 1.4-3.2 1.3-3.2 1.5-3.1 1.2-2.9 1.2-3.5 1.8-2.5.8-3.7v-3l-.4-3.1-.9-3.1-1.3-2.9-2.6-1.7-3-2.4-1.2-2.9-1.5-2.7-1.7-2.5-.8-3.6-1.2-3.7-1.1-2.9-3.5-.5-1.6 4-2.1 3.3-3.2 2.4-3.9-1-3.5-1.1-3.6-1.5-2.9-.8-3.4-.5-1.5-3-3.1-.1-3.7.1H756l-5.1-1.2-3.3-2.1-2.7-2-3.1-1.7-2.9-1.9.5-3.5.4-3.4.5-3.7-1.4-4.3-1.7-3.8-1.7-3.5 4.1.9 3.1.7 1.5-3.3 3.1-1.3 5 .3-1.7-2.7-2.8-2.4-2.7-2.3-1.8-2.6.6-3.2.7-3.7-1.3-3.2-.3-3.1 3.1-2.6 2.6-2.4 4.1-.3 3.2-1.8 3.5.4 3.2.9 3.2-.9 3.7.8 3.7-.8 3.4.1 3.5.7 2.7 1.5 3.7 1.9 4-.1 3.5-1.4 3.5.2 3.4.8 4.2 1.7 3.7.2 2.4-3 .1-4 .3-4.3.4-5.3.2-3.2.2-3.3.2-3 .3-3.5.2-3.1.2-3.2.1-3 .2-3.3.1-3.4.2-4.1.2-3.7.2-3.6 1-3.8 1.3-2.8 1.3-2.8.3-3.3.1-3.2 2.3-3.2 2-3.1 1.8-3.1 1.6-2.6 1.8-3.1 1.7-2.8 2.1-3.4 2-3.3 1.7-3 1.6-3.1 1.1-3.7.8-3 1.1-3.7 1-3.5.9-3.1 1.2-2.8-.2-3.5-.4-3.5-.4-3.4-.4-3.3-.4-3.8-.4-3.1-.5-4.4.1-3.7.2-3.3.2-3.1-1.7-3.1-2.3-3.1-.7-3.3 1.4-2.9.7-3.4 1.2-4.1 1.5-2.8 3.5-1.1-2.4-3.3 1.9-3.2-.1-5.7-1.2-4-.1-3.4-2.3-15.6-1.4-9.7-1-7-3.2-.3-7.9.2-4.3.2-10 2.7-8.2-.1-3.1-.8-2.5-3.3.1-4.2-5-9.5-1.9-3.1-1.6-2.7-1.8-7.2-2.2-7.9-1.6-3.7-1.7-2.7-5-2.6-3.4.1-3.3-1.4-5.1-5.7-2.5-2.8-5.9-4.3-8.4-6.5-8.4-6-8.5-6.1-2.5-2.1-3.3-3.1-4.9 4.2-12.8-.3-18.3-.2-4.8-.1-16.7 8.9-3.1 2.3-3.1 2.2-5.4.9-5.5.8-5.5.9-5.5.8-5.5.9-3.4-.9-3.3-.9-5.5-1.4-1 3-1.1 3.1-1 3-3.1.4-3 .3-3.1.4-3 .3-9.1-.1-9.2 3-4.9.6-19.5 2.3-27.4 1.4-18.2-7.7-12.2 7.6-7.6 2.8-4.6 1.7-9.1 3.1-9.1 3-9.1 3-6.2 1.3-15.1 3.2-15.2 3.2-3 7.6-2.7 1.4-9.4 4.8-1.7 8.3-1.3 6.9-12.1 3.1-8.7 6.6-15.4 11.8-13.6 9.2-4.5 6.1v4l.1 3.2v3.4l-1.8 2.6-2.5 3.9-2.1 3.2-2.2 3.4-2.3 3.5-2.3 3.5-1.7 2.7-2.1 3.2-2 3-1.9 2.9-1.8 4.2-1.8 4.3-1.7 3.8-.5 4.4v9l.1 3.1-3.6 1.8-3.5 1.8-3.5 1.8-3.6 1.9-.8 4.1 1.1 3.5 2.6 2.6 2.6 2.6-3 17.7 13.1 1.7-.7 3.2-1.6 5.8-1.4 5.8-.9 2.9-2.3 9-1.7 5.4-2.1 5.4-.9 3-1.4 6.2-.6 3.3-.6 3.1-.5 5.7-.9 6.2-.3 4.2-.9 4.8-.5 5.7-.8 5.7-.5 6-.4 3-.4 3.1-.8 5.6-.5 3.2-1.2 6.1-.4 3.9-.9 4.6-1.2 5.5-1.3 3.7-1.7 4.1-3.6 1.4-3.4 2.2-1.3 3 1.4 2.9 2.6 1.5 1.2 4.5-1.3 4-1 3-1.2 2.9-1.3 3.3-1.1 3-1.3 3.1-1.8 4.4-1.6 4-1.2 2.8-2.9 6.8-1.4 3.3-2.9 6.2-1.7 3.5-1.8 3.7-1.6 3.3-1.9 3.6-1.9 3.3-2.9 5.2-2.2 3.8-3.3 5.8-2.1 3.2-1.8 2.5-2.3 3.4-2.3 3-2.3 3-2.4 3-2.3 2.8-2.9 2.7-3.1 3.6-3.7 2.3-2.3 4.9-3.3 3.8-2.1 2.4-3.2 3.7-5.8 6.8-2.5 3-2.1 3-2.1 3-2.6 3-12.7.2-13.3 3.1-5.7 1.7-.4 3.6-1.3 11.3-.8 7.2 6.4 3.5-.9 4.4-2.3 11.9-.7 3.5-3.8 1.6-4.1 1.5-4 1.6-5.1 1.9-7.8 5.9-5.8 5.1-5.7 5-10 8.7-7.8 6.9-1.6 2.9-4 7.1-5.9 10.7-3.5 6.4-4.6 8.4-3.6 6.5L90 725.4l-6.8-13.9-9.5 5.6-3.7 2.2-3.4 11.2-3.3 10.3-.9 2.9-5.9 19.2-2.5 8 3.3 6.5 5.6 11 2.2 2.1 2.1 3.9.1 3 1.8 3.2-.4 3.6-2.3 2.5-1.7 3.1 2.7 2.9-1.4 3.1 2.8 2.7-1.1 3 2.8 2.1 2.6 2.5 3.1 1.7 1.7 3.1 3 1.5 3.7.5 3.4-.3 3.1-.3 3-.4 3.3-.3.4-4-.7-3.4-.7-3.7 1.5-2.6 2.6 1.5 2-2.4 2.9-1.6 2.3 2.1 1.5-2.9 5.4-.3 3.2 2 3.5 1.6 3.8-.5 2.7 1.7 2.8 1.2 3.1 2.1 3.6.5 4.1.6 3 .5 1.8 2.6 3.5.2 2.8 1.5-1.2 3.3-.1 3.8.1 3.7 1.2 2.9 3 .3 4.4.4 3.6-.1 3.4-.9 3.2-2.1.4 3.2 1 3.2 3.5-1 1.9-3.3 2.7-1.9 2.8 2.2 3.4-1.5 2.5-2.1 2.4-2.4 3-2.1 3.1-2.1 3.5.6 4.6.1 2.5-1.8 3.3-2.4 4.1-2.9 4.6-3.3 3.2-2.3 2.7-2 3.4-3.1 2.4-3.1 2.4-3 2.2-2.9 1.9-2.5 3.1-3.9.1-3.8-2.1-2.3.3-3.1 3.2-.2 5-.2 5.8-.4 3-.1 3-.1 2.8 1.8.8 3.3 2.9 1.1 3 .5 3.9.4 2.9-1 3.3-1.9 1.8-2.9-1.4-3.3-2.3-3.1-2.7-3.5-1.6-2.9-.1-3.6 2-3.2-.5-3-3.3-1.2 2.6-1.6 3.2-1.8 2.8-1.5 3.1-1.7 3.8-.9 2.9-1.9 3.6-.6 3-.4 3.2-.6 3.4-.5 2.4 3.2-1.6 3.3-1.3 2.8-.4 3.9.4 3.1 2.2 2.2 2.9-1.2 2.8-1.1 3.6.4 3.1.6 3.7.8 2.9 1.3 3.3-1 3.1-.2-.5-4.1 1.9-2.9 2.9-1.2 1.6-2.6 1.8-2.6 2.7-2.3 1.6-2.9 2.7-1.5 1.7-3.3 2.6-1.5 3.6.2 3.7 1.2 3.3 1.5.9 3.5 3.6.6.1 3-.6 3.6-1.6 3.3-.6 4.1.3 3.1 2 2.5-3.1-.5-3-1.8-3.5-.5-3.3-.4-.8 3.7 2.3 2.4 3.8.5 3.8-.7 3.2-.5 3 .5 3.3.9 3.2-1.6 3.2.8 2.4 2.5 2.9 2 2.8-1.1 2.2-2.7 2-2.4 2.1-2.3 3-2.5 2.4-1.9 2.1-2.8 1-3.4-.2-3.6 2-2.9 2.5-2.6 1.9 2.8 2.4 1.9h4l2.2 2.1 2.3 5.7 2 5.1-1.7 2.7-1.6 2.9-1.6 3.1-1.5 2.9 1.7 3 2.6 3 2.4 2.7 2 2.3 1.4 2.8 1.9 2.6.2 4.1.2 4 4.3 2.6 3.6-1.3 3.5-1.4h3.1l3 1.9 3 2 .8 3-.9 3.3-1 3.8v3.6l2.9.9 3.8-1.3 3 .8 3.6.9 3.5-.5h4.4l2-2.6 4.7-.2 3.4.9 3.6 1.1 2.9 1.1 2.3-3.2 2.6-2.8 4.7-1.2 2.5-2.2 1.2-2.9 3.3.8 3.3.8 1.5 2.9 2.7 3.1 2.2 2.2 2.1 2.7-.4 4.4.4 4.3.5 3.6 4.5 2.2 2.9 1.2 7 2.8 3 1.4 1.2 2.9 3 1.6 3.7.5 3.7.7 4.1-.9 3.7-.8 4 1.1 2.7 1.6-.5 3 1.3 3.2 3.6.8 3.1-.7 2.7-2.4 1.9 2.9 2.2 3-.6 3.7-2.9 2.2-2.4 2.4-1.9 2.9 2.9 1.9 2.3 2.7-2.2 2.4-3.2-1.3-2.2 2.7 1.8 2.6-1.6 2.6.8 3.1h-3.6l-2.1 2.4-.9 3.1-1.8 2.9 2.6 2.6-.3 3.7-.8 3.3-.6 3.2-2 2.8-2 2.3-2.6 2.9-2.2 2.8 2.6 2.3 3.3-1.9 2 2.4-2.6 2.9-1.1 3-2.1 2.4-.7 3.3-1.3 3-3.2-1.2-1.5 3.1-1.5 3.1-2.1 2.6-2.7 1.5-3.3 1.8-1.5 3.1-.3 3.6.2 3.5 1.9 3.2.7 3.7 3.6 1.2 3.2 1.6 1.1 3 .4 3.6.6 3.1-1.6 4.3-1.8 3 3.5 1.1 3.3-1.5 3 .7 2.4-2.4 2.4-3 2.9-2.6 2.2 2.1 1 2.9 3.4 1.5 2.9 1.9 3.6-1.3 3 1.5 2.4-2 3.9-1.6 2.2 2.1 1.9 2.8 3.1-.3 3-1.1 3.5-1.2 3.5-.4 2.7 2.1 3.4.5 3.6-.6 1.7-3.4.8-3.2-3.1-1.7-2.8-2.3-2.7-2.3-1-2.9 3.6-.5 3.1.5 2.6-2.8.1-3.8-1.5-3 .4-3.4 3.2-1.7 3.2-1.4 3.1 1.7 2.3-2.9 1.7-2.8.3-3.9-1.7-2.8-.2-3.4 1.1-3.7 2.3-3.2-3.8-.8-3.5.3-1.8-2.4-3-.8-3.3-1.5-.6-3.6-1.6-2.6 2.1-3 1.4-3.9-2.9-1.8-3.5.2-3.1.1-3.2-.2-3.9-1.2-3 1.3-2.7 1.6-2.9.8v-3l.9-3.7-1.7-3.2-2.6-2.9-1.4-3.5.3-3-1.8-3.2 2.2-2.2 3-1.1 2.6-2.4 3.1 2 1.4 3.4 1.7 3.1 3.3-.1 2.5-2.4.3-3.7 1.9-3.2 2.2-2.9 1.6-2.8 2.8-2.5 3.2-1 3.1-2 3-2.8 1.8-2.7 2.8-1.4 2.1-2.7 2.8-2.1 3.4-1.3 3-1.5 3.4-.9 3-1.9-1.7-3.7-3.2-2.1 2.6-2.1 3.6-1.8-1.6-3.3-4 1.9-3.1 1.5-2.9 1.9-2.8 2.1-3.9-.1-1.5-3-.6-4.1-.3-3.8-.4-3.4 2.2-2.1-.2-3.8-.5-3.1 2.5-1.8 3.2-3.6 2.4-2.6 1.8-2.9 1.2-3.1 2-2.4 1.8-2.7 1.2-3 1.2-3 1.4-3.6 3-.4 2.5-2.8 2.3-2.1 3-2.7.2-3.7-1-3.6-.1-3.7 1.9-2.8h-3.7l.2-4.6.6-3.7.4-4.1 1.2-3.9.3-3.3.2-3.1-.4-3.6-1.6-3.6.2-3.4-.3-3.1-1.4-3-1.8-2.5-2.4-1.9-2.5-3.2-1.5-3.4-1.3-3-3-2.5-2.5-2.7-1.4-2.8-2.5-2.3-2.8-2-.9-3.2.9-3.1 1.1-3 .9-3.4 1.6-3.5-2.3-2.4-3-.1-3.2-1.4-3-1-2.8-1.1-2.8-1.3.1-3.5-.1-3.5-.9-3.6 2.4-2.1-1.3-3.1-3.2-2.1-2.9-1.6-2.9-1.4h-3.7ZM383.8 770l-3.4.9-.5-3.7Z"/></clipPath><pattern id="signal-grid" width="72" height="72" patternUnits="userSpaceOnUse"><path stroke="#f4f1ea" stroke-opacity=".1" d="M0 0h72M0 0v72"/><path stroke="#21468b" stroke-opacity=".1" d="M36 0v72M0 36h72"/><path stroke="#e21b23" stroke-opacity=".1" d="M0 0h72"/></pattern><style>.thermal-zones path{opacity:.72}.scan-band{opacity:.24}</style><mask id="land-mask" width="900" height="1050" x="0" y="0" maskUnits="userSpaceOnUse"><path d="M0 0h900v1050H0z"/><path fill="#fff" d="m588.5 668.6 2.8-2.5 3.1-2 1.9-2.4-1.6-3.2-2-3.1 1-3-2.6-2.5-3.4-1.8v-3.5l.9-2.9 2.7-1.5 3.5 1.2 3.6-.4 2.9-2.5 2.9-1.2 3.4-1.8 1.9-2.7 2.5-1.7 2.4 1.9 2.6 2 2.9 1h3.3l3.7.6 2.9.9 1.3-3.1-.1-3.2-3.2-2-1.2-3.6-2.3-2.9-3.5-1.4 1.8-2.4 3.5-.5 3.5-1.2 3.2 1.7 2.4 2.2-.1 3.6 2.3 2.3 2.6 1.8 3.1.4 3.7-.1 3.6.2 2.9-2.1 3.4 1.4 2 2.6 1 3.7 3.5-.1 3.7.2 3.5 1.2 1 3.4 3.1.6 3.2 1.5 2.6-1.8-.8-3.3-.7-3.3-2.5-2.6 1.5-2.7 3.2.8 3.3 1.3 3.2 1.1 3.2 1.4 3.2.7 3.5-1.3 2.4-2.7 3.5-1.7 3.1-2 2.7-2 3.4-.4 3.1-1.9 3.9-1.4 3.1-1 3-.3 3.1-1.9 2.9-1.4 2.7-1.6 3.4.4 2.4 2.7 2.3 2.1 3.6.4 2.9-2.4 2.5-2.6 2.8-1.5 2.3-2.6 2-3.2.5-3.7.4-3.6 3.4-1.7 2.9-.9.2-3-.2-3.2-1.5-2.7-3-.4-1.7-3-3.1-2.5-3-2.2-2.7-2.8-2.7-1.5-3.4-1.7-3.6-1.1h-3.1l-.9-3.3.9-3.5.4-3 3.3-.9 3.2-.5 3.3-1.9.7-3.1 2-2.8.6-3.8.3-3.1h6.6l3.8.1h3l3.2-.3 3-.9 2.6-2.3 1-3.4.9-3.7 1.7-3.2 2.4-2.1 1.8-3.2 3-.5 4-.7 2.5-1.8 1.2-2.8 1.7-2.9 1.7-3.3 1.1-3.4 3.6-1.7 3.4 1.1 3.1-.6 3-1.4 2.8-2.2-1.2-3-2.3-2.3-1.5-2.8-1.8-3.6-.1-3.1-.5-3.3 1.4-3.2 1.3-3.2 1.5-3.1 1.2-2.9 1.2-3.5 1.8-2.5.8-3.7v-3l-.4-3.1-.9-3.1-1.3-2.9-2.6-1.7-3-2.4-1.2-2.9-1.5-2.7-1.7-2.5-.8-3.6-1.2-3.7-1.1-2.9-3.5-.5-1.6 4-2.1 3.3-3.2 2.4-3.9-1-3.5-1.1-3.6-1.5-2.9-.8-3.4-.5-1.5-3-3.1-.1-3.7.1H756l-5.1-1.2-3.3-2.1-2.7-2-3.1-1.7-2.9-1.9.5-3.5.4-3.4.5-3.7-1.4-4.3-1.7-3.8-1.7-3.5 4.1.9 3.1.7 1.5-3.3 3.1-1.3 5 .3-1.7-2.7-2.8-2.4-2.7-2.3-1.8-2.6.6-3.2.7-3.7-1.3-3.2-.3-3.1 3.1-2.6 2.6-2.4 4.1-.3 3.2-1.8 3.5.4 3.2.9 3.2-.9 3.7.8 3.7-.8 3.4.1 3.5.7 2.7 1.5 3.7 1.9 4-.1 3.5-1.4 3.5.2 3.4.8 4.2 1.7 3.7.2 2.4-3 .1-4 .3-4.3.4-5.3.2-3.2.2-3.3.2-3 .3-3.5.2-3.1.2-3.2.1-3 .2-3.3.1-3.4.2-4.1.2-3.7.2-3.6 1-3.8 1.3-2.8 1.3-2.8.3-3.3.1-3.2 2.3-3.2 2-3.1 1.8-3.1 1.6-2.6 1.8-3.1 1.7-2.8 2.1-3.4 2-3.3 1.7-3 1.6-3.1 1.1-3.7.8-3 1.1-3.7 1-3.5.9-3.1 1.2-2.8-.2-3.5-.4-3.5-.4-3.4-.4-3.3-.4-3.8-.4-3.1-.5-4.4.1-3.7.2-3.3.2-3.1-1.7-3.1-2.3-3.1-.7-3.3 1.4-2.9.7-3.4 1.2-4.1 1.5-2.8 3.5-1.1-2.4-3.3 1.9-3.2-.1-5.7-1.2-4-.1-3.4-2.3-15.6-1.4-9.7-1-7-3.2-.3-7.9.2-4.3.2-10 2.7-8.2-.1-3.1-.8-2.5-3.3.1-4.2-5-9.5-1.9-3.1-1.6-2.7-1.8-7.2-2.2-7.9-1.6-3.7-1.7-2.7-5-2.6-3.4.1-3.3-1.4-5.1-5.7-2.5-2.8-5.9-4.3-8.4-6.5-8.4-6-8.5-6.1-2.5-2.1-3.3-3.1-4.9 4.2-12.8-.3-18.3-.2-4.8-.1-16.7 8.9-3.1 2.3-3.1 2.2-5.4.9-5.5.8-5.5.9-5.5.8-5.5.9-3.4-.9-3.3-.9-5.5-1.4-1 3-1.1 3.1-1 3-3.1.4-3 .3-3.1.4-3 .3-9.1-.1-9.2 3-4.9.6-19.5 2.3-27.4 1.4-18.2-7.7-12.2 7.6-7.6 2.8-4.6 1.7-9.1 3.1-9.1 3-9.1 3-6.2 1.3-15.1 3.2-15.2 3.2-3 7.6-2.7 1.4-9.4 4.8-1.7 8.3-1.3 6.9-12.1 3.1-8.7 6.6-15.4 11.8-13.6 9.2-4.5 6.1v4l.1 3.2v3.4l-1.8 2.6-2.5 3.9-2.1 3.2-2.2 3.4-2.3 3.5-2.3 3.5-1.7 2.7-2.1 3.2-2 3-1.9 2.9-1.8 4.2-1.8 4.3-1.7 3.8-.5 4.4v9l.1 3.1-3.6 1.8-3.5 1.8-3.5 1.8-3.6 1.9-.8 4.1 1.1 3.5 2.6 2.6 2.6 2.6-3 17.7 13.1 1.7-.7 3.2-1.6 5.8-1.4 5.8-.9 2.9-2.3 9-1.7 5.4-2.1 5.4-.9 3-1.4 6.2-.6 3.3-.6 3.1-.5 5.7-.9 6.2-.3 4.2-.9 4.8-.5 5.7-.8 5.7-.5 6-.4 3-.4 3.1-.8 5.6-.5 3.2-1.2 6.1-.4 3.9-.9 4.6-1.2 5.5-1.3 3.7-1.7 4.1-3.6 1.4-3.4 2.2-1.3 3 1.4 2.9 2.6 1.5 1.2 4.5-1.3 4-1 3-1.2 2.9-1.3 3.3-1.1 3-1.3 3.1-1.8 4.4-1.6 4-1.2 2.8-2.9 6.8-1.4 3.3-2.9 6.2-1.7 3.5-1.8 3.7-1.6 3.3-1.9 3.6-1.9 3.3-2.9 5.2-2.2 3.8-3.3 5.8-2.1 3.2-1.8 2.5-2.3 3.4-2.3 3-2.3 3-2.4 3-2.3 2.8-2.9 2.7-3.1 3.6-3.7 2.3-2.3 4.9-3.3 3.8-2.1 2.4-3.2 3.7-5.8 6.8-2.5 3-2.1 3-2.1 3-2.6 3-12.7.2-13.3 3.1-5.7 1.7-.4 3.6-1.3 11.3-.8 7.2 6.4 3.5-.9 4.4-2.3 11.9-.7 3.5-3.8 1.6-4.1 1.5-4 1.6-5.1 1.9-7.8 5.9-5.8 5.1-5.7 5-10 8.7-7.8 6.9-1.6 2.9-4 7.1-5.9 10.7-3.5 6.4-4.6 8.4-3.6 6.5L90 725.4l-6.8-13.9-9.5 5.6-3.7 2.2-3.4 11.2-3.3 10.3-.9 2.9-5.9 19.2-2.5 8 3.3 6.5 5.6 11 2.2 2.1 2.1 3.9.1 3 1.8 3.2-.4 3.6-2.3 2.5-1.7 3.1 2.7 2.9-1.4 3.1 2.8 2.7-1.1 3 2.8 2.1 2.6 2.5 3.1 1.7 1.7 3.1 3 1.5 3.7.5 3.4-.3 3.1-.3 3-.4 3.3-.3.4-4-.7-3.4-.7-3.7 1.5-2.6 2.6 1.5 2-2.4 2.9-1.6 2.3 2.1 1.5-2.9 5.4-.3 3.2 2 3.5 1.6 3.8-.5 2.7 1.7 2.8 1.2 3.1 2.1 3.6.5 4.1.6 3 .5 1.8 2.6 3.5.2 2.8 1.5-1.2 3.3-.1 3.8.1 3.7 1.2 2.9 3 .3 4.4.4 3.6-.1 3.4-.9 3.2-2.1.4 3.2 1 3.2 3.5-1 1.9-3.3 2.7-1.9 2.8 2.2 3.4-1.5 2.5-2.1 2.4-2.4 3-2.1 3.1-2.1 3.5.6 4.6.1 2.5-1.8 3.3-2.4 4.1-2.9 4.6-3.3 3.2-2.3 2.7-2 3.4-3.1 2.4-3.1 2.4-3 2.2-2.9 1.9-2.5 3.1-3.9.1-3.8-2.1-2.3.3-3.1 3.2-.2 5-.2 5.8-.4 3-.1 3-.1 2.8 1.8.8 3.3 2.9 1.1 3 .5 3.9.4 2.9-1 3.3-1.9 1.8-2.9-1.4-3.3-2.3-3.1-2.7-3.5-1.6-2.9-.1-3.6 2-3.2-.5-3-3.3-1.2 2.6-1.6 3.2-1.8 2.8-1.5 3.1-1.7 3.8-.9 2.9-1.9 3.6-.6 3-.4 3.2-.6 3.4-.5 2.4 3.2-1.6 3.3-1.3 2.8-.4 3.9.4 3.1 2.2 2.2 2.9-1.2 2.8-1.1 3.6.4 3.1.6 3.7.8 2.9 1.3 3.3-1 3.1-.2-.5-4.1 1.9-2.9 2.9-1.2 1.6-2.6 1.8-2.6 2.7-2.3 1.6-2.9 2.7-1.5 1.7-3.3 2.6-1.5 3.6.2 3.7 1.2 3.3 1.5.9 3.5 3.6.6.1 3-.6 3.6-1.6 3.3-.6 4.1.3 3.1 2 2.5-3.1-.5-3-1.8-3.5-.5-3.3-.4-.8 3.7 2.3 2.4 3.8.5 3.8-.7 3.2-.5 3 .5 3.3.9 3.2-1.6 3.2.8 2.4 2.5 2.9 2 2.8-1.1 2.2-2.7 2-2.4 2.1-2.3 3-2.5 2.4-1.9 2.1-2.8 1-3.4-.2-3.6 2-2.9 2.5-2.6 1.9 2.8 2.4 1.9h4l2.2 2.1 2.3 5.7 2 5.1-1.7 2.7-1.6 2.9-1.6 3.1-1.5 2.9 1.7 3 2.6 3 2.4 2.7 2 2.3 1.4 2.8 1.9 2.6.2 4.1.2 4 4.3 2.6 3.6-1.3 3.5-1.4h3.1l3 1.9 3 2 .8 3-.9 3.3-1 3.8v3.6l2.9.9 3.8-1.3 3 .8 3.6.9 3.5-.5h4.4l2-2.6 4.7-.2 3.4.9 3.6 1.1 2.9 1.1 2.3-3.2 2.6-2.8 4.7-1.2 2.5-2.2 1.2-2.9 3.3.8 3.3.8 1.5 2.9 2.7 3.1 2.2 2.2 2.1 2.7-.4 4.4.4 4.3.5 3.6 4.5 2.2 2.9 1.2 7 2.8 3 1.4 1.2 2.9 3 1.6 3.7.5 3.7.7 4.1-.9 3.7-.8 4 1.1 2.7 1.6-.5 3 1.3 3.2 3.6.8 3.1-.7 2.7-2.4 1.9 2.9 2.2 3-.6 3.7-2.9 2.2-2.4 2.4-1.9 2.9 2.9 1.9 2.3 2.7-2.2 2.4-3.2-1.3-2.2 2.7 1.8 2.6-1.6 2.6.8 3.1h-3.6l-2.1 2.4-.9 3.1-1.8 2.9 2.6 2.6-.3 3.7-.8 3.3-.6 3.2-2 2.8-2 2.3-2.6 2.9-2.2 2.8 2.6 2.3 3.3-1.9 2 2.4-2.6 2.9-1.1 3-2.1 2.4-.7 3.3-1.3 3-3.2-1.2-1.5 3.1-1.5 3.1-2.1 2.6-2.7 1.5-3.3 1.8-1.5 3.1-.3 3.6.2 3.5 1.9 3.2.7 3.7 3.6 1.2 3.2 1.6 1.1 3 .4 3.6.6 3.1-1.6 4.3-1.8 3 3.5 1.1 3.3-1.5 3 .7 2.4-2.4 2.4-3 2.9-2.6 2.2 2.1 1 2.9 3.4 1.5 2.9 1.9 3.6-1.3 3 1.5 2.4-2 3.9-1.6 2.2 2.1 1.9 2.8 3.1-.3 3-1.1 3.5-1.2 3.5-.4 2.7 2.1 3.4.5 3.6-.6 1.7-3.4.8-3.2-3.1-1.7-2.8-2.3-2.7-2.3-1-2.9 3.6-.5 3.1.5 2.6-2.8.1-3.8-1.5-3 .4-3.4 3.2-1.7 3.2-1.4 3.1 1.7 2.3-2.9 1.7-2.8.3-3.9-1.7-2.8-.2-3.4 1.1-3.7 2.3-3.2-3.8-.8-3.5.3-1.8-2.4-3-.8-3.3-1.5-.6-3.6-1.6-2.6 2.1-3 1.4-3.9-2.9-1.8-3.5.2-3.1.1-3.2-.2-3.9-1.2-3 1.3-2.7 1.6-2.9.8v-3l.9-3.7-1.7-3.2-2.6-2.9-1.4-3.5.3-3-1.8-3.2 2.2-2.2 3-1.1 2.6-2.4 3.1 2 1.4 3.4 1.7 3.1 3.3-.1 2.5-2.4.3-3.7 1.9-3.2 2.2-2.9 1.6-2.8 2.8-2.5 3.2-1 3.1-2 3-2.8 1.8-2.7 2.8-1.4 2.1-2.7 2.8-2.1 3.4-1.3 3-1.5 3.4-.9 3-1.9-1.7-3.7-3.2-2.1 2.6-2.1 3.6-1.8-1.6-3.3-4 1.9-3.1 1.5-2.9 1.9-2.8 2.1-3.9-.1-1.5-3-.6-4.1-.3-3.8-.4-3.4 2.2-2.1-.2-3.8-.5-3.1 2.5-1.8 3.2-3.6 2.4-2.6 1.8-2.9 1.2-3.1 2-2.4 1.8-2.7 1.2-3 1.2-3 1.4-3.6 3-.4 2.5-2.8 2.3-2.1 3-2.7.2-3.7-1-3.6-.1-3.7 1.9-2.8h-3.7l.2-4.6.6-3.7.4-4.1 1.2-3.9.3-3.3.2-3.1-.4-3.6-1.6-3.6.2-3.4-.3-3.1-1.4-3-1.8-2.5-2.4-1.9-2.5-3.2-1.5-3.4-1.3-3-3-2.5-2.5-2.7-1.4-2.8-2.5-2.3-2.8-2-.9-3.2.9-3.1 1.1-3 .9-3.4 1.6-3.5-2.3-2.4-3-.1-3.2-1.4-3-1-2.8-1.1-2.8-1.3.1-3.5-.1-3.5-.9-3.6 2.4-2.1-1.3-3.1-3.2-2.1-2.9-1.6-2.9-1.4h-3.7ZM383.8 770l-3.4.9-.5-3.7Z"/><path d="m680.7 3.1-11.5.3-10.6 1.9-14.5 5.5-11.9 4-17.5.1-14.3.6-11.1 2.7-9.7 4-12.7 6.2-10.8.9-13.7-4.1-14.1-1.2-14.8 2-15.8.2-15.3 3.9-11.3 5.5-10 7.4-13.6 3.6-25.6 7.2-23.1 8.3-10.4 5.3-11.2 7.6-15.7 12.7-8.1 9.5-6.3 10.9-8.8 7.9-13.7 7.5-10.9 8.7-10.9 13.9-6 13.2-2.7 11.2-9.8 21.4-5.4 11.1-5.7 16.8-5.4 10.2-4.2 10.7-3 11.7-.9 11.4 1.1 11.4 2.7 13.1 3.2 10.4-3.6 9.3-3.9 13.2-3 16.5-.8 12.2-3.6 31.2-1.3 9.6-7 10.2-4.9 11.5-3.1 15.2.5 15.3-10.5 24.3-5.3 9.9-7.4 12.9-6.2 8.5-10 8.8-7.6 10.2-7.7 7.9-13.8 4.1-10.4 5.1-9.7 7.1-9.3 9.4-6.6 9.2-5.4 10.4-3.6 10.9-1.9 11.2-8.7 6.6-10.3 9.3-9.1 7.5-10.6 6.2-11.4 8.6-9 10.5-5.4 9.5-3.7 10-2.1 10.4-20 20.3-9.7 10.5-8.2 14.4-4.3 16.3 26.3 21.6 17 11.3L63 788.7l-5.7-11.3 3.6-28.6 9.1-29.5 13.2-7.8 6.8 13.9 17.1-10.1 4.8-8.7 8.7-15.8 9.7-17.5 7.3-6.4 10.5-9.2 15.4-13.5 14.5-6.5 8.5-13.3-4.6-12.6 2.5-22.1 16.1-4.8 15.6-.2 6.2-8.1 7.1-8.6 6.9-7.9 6.1-9.5 9.3-8 7.4-9.4 7.3-10.1 6.4-11.1 4.7-8.4 5.1-9.9 4.6-9.9 4.5-10.3 4.7-11.6 5.1-13 1-10.9.5-9.5 6.1-7.6 2.6-11.1 1.7-10.6 1.7-11.9 1.4-11.9 1.5-12 1.4-11.7 1.5-11.3 2.5-10 3.8-10.8 3.2-11.9 3-11.6-12.4-4.9 3-15.1-6.2-8.8 7.4-10.1 7.3-18.9 5.9-13.7 6-9.1 9.9-15.2 4.9-18.2 9-9.2 9.1-6.1 12-9.2 9.1-6.9 9-3.9 9.1-16.7 9.1-4.6 6-9.2 27.3-5.7 30.5-9.1 18.2-6.5 12.2-7.6 14.6 6.1 15.8.9 15.2-.7 15.3-1.8 18.3-4.1 12.1-.2 10.8-5.7 13.7-1.3 27.4-4.3 9.3-6.3 12.3-7.1 18.3.2 12.7.3-4.8-9.4-7-8.9-6.3-10.5L691 23ZM420.2 143.5 214.4 42.8l-42.2 235.5-26.7 150.8 125.5-2.5 18-.3 15-.1 8.9-8.5 2.7-14.3 2-13.6 1.5-13.9 1.5-13.6 1.4-13.6 2.4-13.7 5.1-12.9 3.3-13.2 3.4-13.3 1.2-9.5 1.1-14 2.6-11.4-4.3-12.6 1.9-13.5 5.7-12.4 7.4-11.8 7.2-11.7 8.2-12.6 3.5-10.5 8.5-6 11.2-9.9 8.6-5.2 12.7-4.5Zm6.6-18.9 1.7-37.5-.1-35.4V40l-.1-22.7-213.9 25.5 205.8 100.7Zm138.8-28 1-94-15.9 1.6-34.1 3.6-88.3 9.5.1 22.7.1 47.1.1 36 12.9-4.4 9.5-2.9 9.5-2.6 9.7-2.2 11.1-3.3 13.3-3.3 13.5 1 13-5.8 12.1-5.4 13.6 3.6ZM282.2 500.8l-84.3 1.4-12.9.2-72.3 1.8-65.6 75.7 167.9-4.1 13.1-2.4 9.2-10.4 6.3-7.4 9.8-10.8 8.7-10.7 7.9-11.3 6.9-12.2ZM735.9 66l-8.6-7.4-5.8-7.7-27.3-60.7-69.7 6.6-57.9 5.8-1 94 14.2-.9 10.1.3 10.5-4.9 10.4 2.2 10.2-1.6 11.4-7.1 14.3-2 9.6-1.5 9.5-1.7 10-1.4 14.9-6.1 11.2-5 13.5 2.4ZM273.8 425.9l-128.3 3.2-8.2 46.9-24.6 28.2 72.3-1.8 12.9-.2 76-1.3 11.3-6 5.9-12.5 3.8-8.9 5.2-12.9 4.9-12.9-.9-13-15.1-8.4Zm-99.7 215.9-8-9.8-107.2 2.7-10.2.3-21.8.6-6.8 18.6-13.2 55.4 14.9-.5 29-.9 58.5-1.5 11 8.9 9.6-2.8 3.2-10.1-3.2-12.9 1.4-13.1 10.9-5.3 13.5-.9 9.6-9.9-.1-13.6-13.1 5.7 10.3-9.1Zm32.5-4.1-6.3-12.5-3.4-9.2-9.3-10.1.7-12.8 13.4-2.6 13.6-1.8 7.2-7.9-175.4-.9-20.2 55.7 21.8-.6 114.1-2.9 9.7 5.7 12.5-1.5ZM21.8 709.1l-14.9.5-4.8 17.2 49.3 45 9.6 18 12.5-3.6 13-3.7 13.2-3.4 10.7-6.1-9-8.2-8.1-10.8-10.5-8.8-.4-11.5 8.6-6.1 9.1-5.5L113 718l-3.7-11.3-58.5 1.5ZM413.3 420l5.1 13-4.4 9.7.5 12.8 13.2-.6 11.9-7.2 8.8-5.4 8.1-5.7 9.8-6.9 11.6-9.3 4.5-12.3 7.5-11.9-5.9-12.6-7.5-11.7-9.5-9.7-12.4-2-9.7 3.6-8.2 10.2-11.9 6.4-12.4-5.1-12.6 3.9 1.8 13.5 4.9 12.6Zm104.8-310.7-4.4 11.7-10.3 4.5 3-9.9 5.5-9.6-9.5 7.8-10.7-1-10.3 5-12.5 4.6-12.3 5-12.7 4.5 12.8 2.5 11.8-5.6-9.8 8.5-13.1-1.4 3.5 8.9 11.8-6.2 11.4-6 7.2-7.2 4.1 8.9-12.4 2.3 10.6 1.2 9.9-3-7.3 6.7 3.1 10.5 11-8 .4 10.2-13.4.2-8.8-6.1-9.3 6.1 7 8.8-7.8-7.3-10.1-.9-9.7 2.7-10.3 3 1.3 11.5 13.7 1.7 10.1-2.1 3.6 8.9 1.8 9.6 9.2 2.5 5.1-13.1 7.4-6.2 9.8-3.9 9.8-9.2 6.1-7.4 12.1-6.6 12.5-5.3 12.1-5.6 12.5-5.3 10.8-7.8h-11.7l-11.7 3-10.6-3.2 6 10.1-13.6-1.8-2.3-9.5-8.5 11-3.8 8.8 3.2-9.9-11.9 6.1 6.9-12.6 7-6.6Zm-29.7 16.2-12.7 3-8.8 10.2-13.3 2.3-10.9 1.6 10.8-4.3 12.9-5.1-9.7 1.3-13-1.3-15.5 4.2-8 6.1-4.1 9.6-7.1 8.7 9-10.5 10.2 5.9-1.6 10.5-3.1 9 1.7 13.5 5.9 10.4-8.8 12.2.1 14.8v10.2l.1 22.4 7.3-6.4 6.9-6.7 7.7-5.9 10.3-9.3 12-6.2-7-7.8-7 8.5-12.2 4.7-10.9 2 7.9-6.5 9.2-3.6-10-6.5 4.9-10.1-9.7-4.2 8.8-6.5-8.6-5.7 9.6-9.2 13.2.8 4.6 8.5 9.3-6.7-12.1-4 10.1-2.1 5.4-8-10.9 8.6-10.1-3.1-13.6-1.8-2.9-12 9.8-3 11.2-3.5 9.7.5 8.7 4.4-8.8-8.1 13.2-2.1 12.1 5.6 10.9-2.2 3.8-9-10.8 6.3-9.6-3.5 8.3-9.3-12.4 3.8h-11.6l10.4-4.2Zm37.9 175.6-12.6 4.8-11.5 2.6-12.7-5-24.9 14.9-13.8 18.1 10.8 8.3 54.4 2 .3-13.7 7.3-12.1 5.3-8.6Zm-104.1-88.2-11.3 1.8-13.1-.7-13.5 1.6-3.9 14.7.1 9.7.1 15 .7 13.7 13.3 3 13.4 1.2 7.3-6.3 7.2-22.3-.1-13.3Zm39.4 131.9-5.6 11.3 12.1 6.2 9.2 9.9 5.1 8.6 6.7 12.1-4.9 11.2 13.5-2.3 9.5-9.8 8.9-4 9.3-3.7-4.6-12.8-5-8.5.1-10.2Zm10.9-121.3-11.2 7.5-9 3.7-10.6 9.2-11.3 9.8-1.4 12.5.1 15.5 49.5-1.4.5-13.4-2.8-13.2-1.5-12.6Zm6 57.3-49.4.9.1 24.4v20.2l.1 12.2 13.1-1.5 22.2-18.6 12.1-16-9-9.6Zm-57.4-130.1-9.3 5.1.7 9.5-3.9-9.2-12.4 5.9-5.8 10.7-10.7 8.4-12.4 4.9 12.4-3.7 12.5-3.8 9.2-3.3-8.1 5-11.6 4.4-8.2 5.2 8.1 8.7 9.2-3.3 8.5-9.5 7.7 5.7-12.7.1 6.9 6.7 12.2-5.4-11.8 6.5-1.4 10-6.3-7.6-13.5.9-8.7-4.3 4.8 12.4-.7 13.7 9.7-10.4 9.7-1.1 10-1.9 11.9-4.9 12.3-4.8-6.2-9.9.1-13.4 3.3-11.2ZM192.4 765.9l-12.1 1-5 12.7-9.4 8-10-1.1-10.9-8.4-10.6-6.7-11.8-4.8-12.2 6.4-2.7 9.8 12.3 6 12.3 4 12.5 4.9 13.2 2.4 12.9-2.1 12.2-7.6 4.6-12.6 12.3 5.6 9.7 8.7 9.5.3 9.3-4 11.4 3.8-4.5-10.3-12.7 5.2-11.2-3.7-7.2-7.8Zm32.3-73.6-8.9 4.1-8.5 10.8-8.2 6.4-9.6-1.4-12.4-4.6-6.7 7 2 11.2 7 9.3 11.6 6 12.6 5.7 7.5 10.5 11.3 2.9 13.6 2.5-12.8-4 11.7-.2-10.4-8-7.4-8.9-13.1-3.3-11.3-6.5-4.8-13.9 13.3-2.2 11.9-3.4 12.3 1.1-11.9-2.3 3.6-12.4ZM681.6 79.8l-13.2 2.4-10.9 5.6-12.1 5.2-10 7.8 12.8-4.5-8.8 7.1 4.4 9.2 9.9-9.3 9.4 1.4 1.3 12.8 12.6-4.7 13.4-2 7.1-7.4-11.5-3.3-11.5 5.7 2-10.3-10 1.3-2.2-9.7ZM429 256.5l-7.9 5.4-7.6 6.6-7.5 11 6.3 13.2 6.5 12.8 10.4 7.5-.1-27v-10.6ZM380.3 220l-6.3 12.3-8.8 10.3-10.3 9-11.7 7.1 6.5 7 6.3 12.5 2.5-11 9.5 6.4-5-9.8 12.7-2.9 4.8-17.2-.1-13.4Zm142-111.6-3.1 12.9-7.5 10.9 7.8 6.4 3.1-9.1 5.1-8.2 8.9 6.7 9.2 4.4-6.9-9.6 9.6 1.2h12.7l12-3.3-12.7-2.2 11.6-5.3-13.4-1.9-13.1-3.9-8.1 8.3Zm88.4-12-6.3 9.2-10.9-1.8-5.2 9.3-10.8-7.8 12.2-4.3-13.1.2-13.2 3.8 9.9 1.2-5.5 8.4-9.3-2.3 9.8 5.2 12.6.2 11 3.2 13.2-2.8 9.6-.9 11.2.9-9.1-9.8ZM154.8 685.3l-8.5 5.9-6.5 8.5 5.8 9.6-12.6 1.5 9.4 6.7 13.5-2.6 14.9-.8.2-12.3-8.1-9.9Zm558-615.9 1.9 9.5 9.4 9.2-8 8.3-11.2 6.9 10.4 4.2 12.3-6.1 13.2-3.5 13.7.2-8.8-7-11.4-2.5-1.9-12.3-3.7 10.6-5.8-9.4ZM208.5 637.7l1.1 10.7 12.2 6.7 12 6.5 9.9 9.3 10.5 7.9 13.2.6-3.2-9.4-12.6-4.8-11.2-7.2-9.5-7.5-11.1-5.2Zm244.3-456.8-6.3 7.2-9.1-6.8-1.8 11.4 4.8 10.6-5 10.3 8.9 3.5-6.5 9.7-9.9 1 12.1-.3 10.2 1.3.5-11.4-.9-14.4 4.3-10.2ZM743 71l-11.9.6 5.3 11.4 10.1 8.1 13.4 5.1 9.1 3.4 13.2 5-7.4-8-7.8-6.7-9.5-8.1ZM186.3 650.4l-13.2 3.3-7.3 10.3 9.4 9.5 10.3-4.4 12.7-2.9Zm223.1-200.5-8.9 9.2-3.4 10.1 9.9 5.7 13 2.6 1.7-13.1Zm76.5-269.3 7.4-11.3-6.4 7.8-6.8 6.7-7.7 8.7-12.9.3-9.1 9.2 2.3 9.3 9.1 3.4-5.7-8.2 11.7-4.8 2 11.1 4.8-12.4ZM193.7 665.7l-2.8 11.1 6.6 12.1 12.9 4L224 691l-5.3-8.8-13.5-1.7Zm583-561.2.8 13.9 2.2 14 9.6 9.1-7.8-5.7-2.2-13.3-.6-9.5 9.9 6.5 5.5 12.4 4 12.7 13.8 5.4 11.6-6.8 10.3-.6-10.3-.9-9.4 2.1-10.1.3-8.5-15.3L787 106Zm-156.1-6.9-9.6 1.5.1 10.6h10.2l9.1 3.3 13.6 2 13-2 8.8-4.5-13.4 1.7-9.2 2.7-13-4.7 10.4-6-10.8 1.1Zm-240.1 162-10.7 4.6.7 11.7-6.5-7.7 4.4 11.3 10.5-1.2 10.7-3.4 12.9-2.2-13.8-.9Zm-22.8 10 6.1 10.6 4 10 13.2-2.9 9.8-10.1 12.8-3.8-13 1-9.7-.5-8.6 6.2Zm39.1-91.2-13.4.7-7.9 8.2-11.2 3.9 11 9.7 9.2 3.1 10.6-.4 10.5.8-10.4-2.1 11-5.3-14-.9 7.9-6-9.2 5.5-9.7 3-8.8-8.4 10.5-8.3Zm256.3-83.9-12.7 4.7-10.5 6 7 6.7 12.3-4.7 13.4.6-13.2 3.7 12.9 3.9-13.1-1.5 13.2 2 10.5-7.8-10.8-2.3-10 1.3 10.7-7.8-12.2 6.5-10.8 6.5 6.1-10.3Zm43.8-26.2-2.4 9.6 7.1 11.8-10.3 3.8 11.3.8 13.7.7-4.5-9.3-7.1-6.5ZM406.1 244.4l-9.6 7.3-2.1 12.5 11.1 7.5 3.2-13.5Z"/></mask></defs><path d="m588.5 668.6 2.8-2.5 3.1-2 1.9-2.4-1.6-3.2-2-3.1 1-3-2.6-2.5-3.4-1.8v-3.5l.9-2.9 2.7-1.5 3.5 1.2 3.6-.4 2.9-2.5 2.9-1.2 3.4-1.8 1.9-2.7 2.5-1.7 2.4 1.9 2.6 2 2.9 1h3.3l3.7.6 2.9.9 1.3-3.1-.1-3.2-3.2-2-1.2-3.6-2.3-2.9-3.5-1.4 1.8-2.4 3.5-.5 3.5-1.2 3.2 1.7 2.4 2.2-.1 3.6 2.3 2.3 2.6 1.8 3.1.4 3.7-.1 3.6.2 2.9-2.1 3.4 1.4 2 2.6 1 3.7 3.5-.1 3.7.2 3.5 1.2 1 3.4 3.1.6 3.2 1.5 2.6-1.8-.8-3.3-.7-3.3-2.5-2.6 1.5-2.7 3.2.8 3.3 1.3 3.2 1.1 3.2 1.4 3.2.7 3.5-1.3 2.4-2.7 3.5-1.7 3.1-2 2.7-2 3.4-.4 3.1-1.9 3.9-1.4 3.1-1 3-.3 3.1-1.9 2.9-1.4 2.7-1.6 3.4.4 2.4 2.7 2.3 2.1 3.6.4 2.9-2.4 2.5-2.6 2.8-1.5 2.3-2.6 2-3.2.5-3.7.4-3.6 3.4-1.7 2.9-.9.2-3-.2-3.2-1.5-2.7-3-.4-1.7-3-3.1-2.5-3-2.2-2.7-2.8-2.7-1.5-3.4-1.7-3.6-1.1h-3.1l-.9-3.3.9-3.5.4-3 3.3-.9 3.2-.5 3.3-1.9.7-3.1 2-2.8.6-3.8.3-3.1h6.6l3.8.1h3l3.2-.3 3-.9 2.6-2.3 1-3.4.9-3.7 1.7-3.2 2.4-2.1 1.8-3.2 3-.5 4-.7 2.5-1.8 1.2-2.8 1.7-2.9 1.7-3.3 1.1-3.4 3.6-1.7 3.4 1.1 3.1-.6 3-1.4 2.8-2.2-1.2-3-2.3-2.3-1.5-2.8-1.8-3.6-.1-3.1-.5-3.3 1.4-3.2 1.3-3.2 1.5-3.1 1.2-2.9 1.2-3.5 1.8-2.5.8-3.7v-3l-.4-3.1-.9-3.1-1.3-2.9-2.6-1.7-3-2.4-1.2-2.9-1.5-2.7-1.7-2.5-.8-3.6-1.2-3.7-1.1-2.9-3.5-.5-1.6 4-2.1 3.3-3.2 2.4-3.9-1-3.5-1.1-3.6-1.5-2.9-.8-3.4-.5-1.5-3-3.1-.1-3.7.1H756l-5.1-1.2-3.3-2.1-2.7-2-3.1-1.7-2.9-1.9.5-3.5.4-3.4.5-3.7-1.4-4.3-1.7-3.8-1.7-3.5 4.1.9 3.1.7 1.5-3.3 3.1-1.3 5 .3-1.7-2.7-2.8-2.4-2.7-2.3-1.8-2.6.6-3.2.7-3.7-1.3-3.2-.3-3.1 3.1-2.6 2.6-2.4 4.1-.3 3.2-1.8 3.5.4 3.2.9 3.2-.9 3.7.8 3.7-.8 3.4.1 3.5.7 2.7 1.5 3.7 1.9 4-.1 3.5-1.4 3.5.2 3.4.8 4.2 1.7 3.7.2 2.4-3 .1-4 .3-4.3.4-5.3.2-3.2.2-3.3.2-3 .3-3.5.2-3.1.2-3.2.1-3 .2-3.3.1-3.4.2-4.1.2-3.7.2-3.6 1-3.8 1.3-2.8 1.3-2.8.3-3.3.1-3.2 2.3-3.2 2-3.1 1.8-3.1 1.6-2.6 1.8-3.1 1.7-2.8 2.1-3.4 2-3.3 1.7-3 1.6-3.1 1.1-3.7.8-3 1.1-3.7 1-3.5.9-3.1 1.2-2.8-.2-3.5-.4-3.5-.4-3.4-.4-3.3-.4-3.8-.4-3.1-.5-4.4.1-3.7.2-3.3.2-3.1-1.7-3.1-2.3-3.1-.7-3.3 1.4-2.9.7-3.4 1.2-4.1 1.5-2.8 3.5-1.1-2.4-3.3 1.9-3.2-.1-5.7-1.2-4-.1-3.4-2.3-15.6-1.4-9.7-1-7-3.2-.3-7.9.2-4.3.2-10 2.7-8.2-.1-3.1-.8-2.5-3.3.1-4.2-5-9.5-1.9-3.1-1.6-2.7-1.8-7.2-2.2-7.9-1.6-3.7-1.7-2.7-5-2.6-3.4.1-3.3-1.4-5.1-5.7-2.5-2.8-5.9-4.3-8.4-6.5-8.4-6-8.5-6.1-2.5-2.1-3.3-3.1-4.9 4.2-12.8-.3-18.3-.2-4.8-.1-16.7 8.9-3.1 2.3-3.1 2.2-5.4.9-5.5.8-5.5.9-5.5.8-5.5.9-3.4-.9-3.3-.9-5.5-1.4-1 3-1.1 3.1-1 3-3.1.4-3 .3-3.1.4-3 .3-9.1-.1-9.2 3-4.9.6-19.5 2.3-27.4 1.4-18.2-7.7-12.2 7.6-7.6 2.8-4.6 1.7-9.1 3.1-9.1 3-9.1 3-6.2 1.3-15.1 3.2-15.2 3.2-3 7.6-2.7 1.4-9.4 4.8-1.7 8.3-1.3 6.9-12.1 3.1-8.7 6.6-15.4 11.8-13.6 9.2-4.5 6.1v4l.1 3.2v3.4l-1.8 2.6-2.5 3.9-2.1 3.2-2.2 3.4-2.3 3.5-2.3 3.5-1.7 2.7-2.1 3.2-2 3-1.9 2.9-1.8 4.2-1.8 4.3-1.7 3.8-.5 4.4v9l.1 3.1-3.6 1.8-3.5 1.8-3.5 1.8-3.6 1.9-.8 4.1 1.1 3.5 2.6 2.6 2.6 2.6-3 17.7 13.1 1.7-.7 3.2-1.6 5.8-1.4 5.8-.9 2.9-2.3 9-1.7 5.4-2.1 5.4-.9 3-1.4 6.2-.6 3.3-.6 3.1-.5 5.7-.9 6.2-.3 4.2-.9 4.8-.5 5.7-.8 5.7-.5 6-.4 3-.4 3.1-.8 5.6-.5 3.2-1.2 6.1-.4 3.9-.9 4.6-1.2 5.5-1.3 3.7-1.7 4.1-3.6 1.4-3.4 2.2-1.3 3 1.4 2.9 2.6 1.5 1.2 4.5-1.3 4-1 3-1.2 2.9-1.3 3.3-1.1 3-1.3 3.1-1.8 4.4-1.6 4-1.2 2.8-2.9 6.8-1.4 3.3-2.9 6.2-1.7 3.5-1.8 3.7-1.6 3.3-1.9 3.6-1.9 3.3-2.9 5.2-2.2 3.8-3.3 5.8-2.1 3.2-1.8 2.5-2.3 3.4-2.3 3-2.3 3-2.4 3-2.3 2.8-2.9 2.7-3.1 3.6-3.7 2.3-2.3 4.9-3.3 3.8-2.1 2.4-3.2 3.7-5.8 6.8-2.5 3-2.1 3-2.1 3-2.6 3-12.7.2-13.3 3.1-5.7 1.7-.4 3.6-1.3 11.3-.8 7.2 6.4 3.5-.9 4.4-2.3 11.9-.7 3.5-3.8 1.6-4.1 1.5-4 1.6-5.1 1.9-7.8 5.9-5.8 5.1-5.7 5-10 8.7-7.8 6.9-1.6 2.9-4 7.1-5.9 10.7-3.5 6.4-4.6 8.4-3.6 6.5L90 725.4l-6.8-13.9-9.5 5.6-3.7 2.2-3.4 11.2-3.3 10.3-.9 2.9-5.9 19.2-2.5 8 3.3 6.5 5.6 11 2.2 2.1 2.1 3.9.1 3 1.8 3.2-.4 3.6-2.3 2.5-1.7 3.1 2.7 2.9-1.4 3.1 2.8 2.7-1.1 3 2.8 2.1 2.6 2.5 3.1 1.7 1.7 3.1 3 1.5 3.7.5 3.4-.3 3.1-.3 3-.4 3.3-.3.4-4-.7-3.4-.7-3.7 1.5-2.6 2.6 1.5 2-2.4 2.9-1.6 2.3 2.1 1.5-2.9 5.4-.3 3.2 2 3.5 1.6 3.8-.5 2.7 1.7 2.8 1.2 3.1 2.1 3.6.5 4.1.6 3 .5 1.8 2.6 3.5.2 2.8 1.5-1.2 3.3-.1 3.8.1 3.7 1.2 2.9 3 .3 4.4.4 3.6-.1 3.4-.9 3.2-2.1.4 3.2 1 3.2 3.5-1 1.9-3.3 2.7-1.9 2.8 2.2 3.4-1.5 2.5-2.1 2.4-2.4 3-2.1 3.1-2.1 3.5.6 4.6.1 2.5-1.8 3.3-2.4 4.1-2.9 4.6-3.3 3.2-2.3 2.7-2 3.4-3.1 2.4-3.1 2.4-3 2.2-2.9 1.9-2.5 3.1-3.9.1-3.8-2.1-2.3.3-3.1 3.2-.2 5-.2 5.8-.4 3-.1 3-.1 2.8 1.8.8 3.3 2.9 1.1 3 .5 3.9.4 2.9-1 3.3-1.9 1.8-2.9-1.4-3.3-2.3-3.1-2.7-3.5-1.6-2.9-.1-3.6 2-3.2-.5-3-3.3-1.2 2.6-1.6 3.2-1.8 2.8-1.5 3.1-1.7 3.8-.9 2.9-1.9 3.6-.6 3-.4 3.2-.6 3.4-.5 2.4 3.2-1.6 3.3-1.3 2.8-.4 3.9.4 3.1 2.2 2.2 2.9-1.2 2.8-1.1 3.6.4 3.1.6 3.7.8 2.9 1.3 3.3-1 3.1-.2-.5-4.1 1.9-2.9 2.9-1.2 1.6-2.6 1.8-2.6 2.7-2.3 1.6-2.9 2.7-1.5 1.7-3.3 2.6-1.5 3.6.2 3.7 1.2 3.3 1.5.9 3.5 3.6.6.1 3-.6 3.6-1.6 3.3-.6 4.1.3 3.1 2 2.5-3.1-.5-3-1.8-3.5-.5-3.3-.4-.8 3.7 2.3 2.4 3.8.5 3.8-.7 3.2-.5 3 .5 3.3.9 3.2-1.6 3.2.8 2.4 2.5 2.9 2 2.8-1.1 2.2-2.7 2-2.4 2.1-2.3 3-2.5 2.4-1.9 2.1-2.8 1-3.4-.2-3.6 2-2.9 2.5-2.6 1.9 2.8 2.4 1.9h4l2.2 2.1 2.3 5.7 2 5.1-1.7 2.7-1.6 2.9-1.6 3.1-1.5 2.9 1.7 3 2.6 3 2.4 2.7 2 2.3 1.4 2.8 1.9 2.6.2 4.1.2 4 4.3 2.6 3.6-1.3 3.5-1.4h3.1l3 1.9 3 2 .8 3-.9 3.3-1 3.8v3.6l2.9.9 3.8-1.3 3 .8 3.6.9 3.5-.5h4.4l2-2.6 4.7-.2 3.4.9 3.6 1.1 2.9 1.1 2.3-3.2 2.6-2.8 4.7-1.2 2.5-2.2 1.2-2.9 3.3.8 3.3.8 1.5 2.9 2.7 3.1 2.2 2.2 2.1 2.7-.4 4.4.4 4.3.5 3.6 4.5 2.2 2.9 1.2 7 2.8 3 1.4 1.2 2.9 3 1.6 3.7.5 3.7.7 4.1-.9 3.7-.8 4 1.1 2.7 1.6-.5 3 1.3 3.2 3.6.8 3.1-.7 2.7-2.4 1.9 2.9 2.2 3-.6 3.7-2.9 2.2-2.4 2.4-1.9 2.9 2.9 1.9 2.3 2.7-2.2 2.4-3.2-1.3-2.2 2.7 1.8 2.6-1.6 2.6.8 3.1h-3.6l-2.1 2.4-.9 3.1-1.8 2.9 2.6 2.6-.3 3.7-.8 3.3-.6 3.2-2 2.8-2 2.3-2.6 2.9-2.2 2.8 2.6 2.3 3.3-1.9 2 2.4-2.6 2.9-1.1 3-2.1 2.4-.7 3.3-1.3 3-3.2-1.2-1.5 3.1-1.5 3.1-2.1 2.6-2.7 1.5-3.3 1.8-1.5 3.1-.3 3.6.2 3.5 1.9 3.2.7 3.7 3.6 1.2 3.2 1.6 1.1 3 .4 3.6.6 3.1-1.6 4.3-1.8 3 3.5 1.1 3.3-1.5 3 .7 2.4-2.4 2.4-3 2.9-2.6 2.2 2.1 1 2.9 3.4 1.5 2.9 1.9 3.6-1.3 3 1.5 2.4-2 3.9-1.6 2.2 2.1 1.9 2.8 3.1-.3 3-1.1 3.5-1.2 3.5-.4 2.7 2.1 3.4.5 3.6-.6 1.7-3.4.8-3.2-3.1-1.7-2.8-2.3-2.7-2.3-1-2.9 3.6-.5 3.1.5 2.6-2.8.1-3.8-1.5-3 .4-3.4 3.2-1.7 3.2-1.4 3.1 1.7 2.3-2.9 1.7-2.8.3-3.9-1.7-2.8-.2-3.4 1.1-3.7 2.3-3.2-3.8-.8-3.5.3-1.8-2.4-3-.8-3.3-1.5-.6-3.6-1.6-2.6 2.1-3 1.4-3.9-2.9-1.8-3.5.2-3.1.1-3.2-.2-3.9-1.2-3 1.3-2.7 1.6-2.9.8v-3l.9-3.7-1.7-3.2-2.6-2.9-1.4-3.5.3-3-1.8-3.2 2.2-2.2 3-1.1 2.6-2.4 3.1 2 1.4 3.4 1.7 3.1 3.3-.1 2.5-2.4.3-3.7 1.9-3.2 2.2-2.9 1.6-2.8 2.8-2.5 3.2-1 3.1-2 3-2.8 1.8-2.7 2.8-1.4 2.1-2.7 2.8-2.1 3.4-1.3 3-1.5 3.4-.9 3-1.9-1.7-3.7-3.2-2.1 2.6-2.1 3.6-1.8-1.6-3.3-4 1.9-3.1 1.5-2.9 1.9-2.8 2.1-3.9-.1-1.5-3-.6-4.1-.3-3.8-.4-3.4 2.2-2.1-.2-3.8-.5-3.1 2.5-1.8 3.2-3.6 2.4-2.6 1.8-2.9 1.2-3.1 2-2.4 1.8-2.7 1.2-3 1.2-3 1.4-3.6 3-.4 2.5-2.8 2.3-2.1 3-2.7.2-3.7-1-3.6-.1-3.7 1.9-2.8h-3.7l.2-4.6.6-3.7.4-4.1 1.2-3.9.3-3.3.2-3.1-.4-3.6-1.6-3.6.2-3.4-.3-3.1-1.4-3-1.8-2.5-2.4-1.9-2.5-3.2-1.5-3.4-1.3-3-3-2.5-2.5-2.7-1.4-2.8-2.5-2.3-2.8-2-.9-3.2.9-3.1 1.1-3 .9-3.4 1.6-3.5-2.3-2.4-3-.1-3.2-1.4-3-1-2.8-1.1-2.8-1.3.1-3.5-.1-3.5-.9-3.6 2.4-2.1-1.3-3.1-3.2-2.1-2.9-1.6-2.9-1.4h-3.7ZM383.8 770l-3.4.9-.5-3.7Z" mask="url(#land-mask)" style="fill:rgba(226,27,35,.16)"/><g mask="url(#land-mask)"><g class="thermal-field"><path fill="url(#thermal-gradient)" d="M0 0h900v1050H0z" style="opacity:.96"/><path fill="url(#thermal-alt-gradient)" d="M0 0h900v1050H0z" style="opacity:.34"/><g class="thermal-zones"><path d="M-80 30C90 84 170 220 200 390c24 140-44 290-154 430l-126 290Z" style="fill:#002d89"/><path d="M105 0c125 90 205 210 223 350 22 160-54 334-152 464-38 52-62 114-58 236H-80V40Z" style="fill:#00b4d8"/><path d="M250-40C418 80 508 214 510 370c4 150-96 268-164 394-40 74-52 166-24 326H104c6-170 72-300 120-416 62-150 68-270 26-390-32-96-56-202 0-324" style="fill:#24b45a"/><path d="M438-70C606 58 690 224 660 400c-24 142-112 218-154 360-28 94-4 190 72 350H294c-24-160 8-290 66-410 64-132 138-232 126-370-10-140-98-252-48-400" style="fill:#ffe34d"/><path d="M616-40c144 158 216 332 180 506-28 140-122 240-162 372-30 98 16 174 130 272H506c-52-142-54-252-12-378 48-144 134-246 132-388-2-138-82-262-10-384" style="fill:#ff8b1a"/><path d="M760-70h220v1180H706c-96-130-128-246-92-366 42-140 150-226 178-362s-18-270-32-452" style="fill:#e21b23"/></g></g><path fill="url(#signal-grid)" d="M-72-72H972v1194H-72z" style="opacity:.2"/><g style="fill:none;stroke:rgba(1,7,10,.9);stroke-width:8;stroke-linecap:round;stroke-linejoin:round;opacity:.62"><path d="M96 768c74-26 114-86 176-118 74-38 158-22 240-66 82-42 152-112 290-122M178 626c82-12 146-56 212-114 78-68 158-90 260-130M250 846c78-56 180-90 276-122 106-36 184-82 298-108"/><path d="M326 364c70 32 126 82 180 148 48 58 106 84 202 92"/></g><g class="thermal-contours" style="fill:none;stroke:rgba(244,241,234,.34);stroke-width:2.2;stroke-linecap:round;stroke-dasharray:18 18;opacity:.78"><path d="M86 778c98-54 206-54 298 4s176 120 340 30M126 634c110-30 202-106 274-224s144-220 360-294"/><path d="M188 884c128-92 300-148 548-272M188 500c154-24 300-98 458-222s176-88 276-38M286 688c140-68 288-98 504-202M98 300c150 60 296 26 452-70" style="stroke:rgba(19,185,255,.32);stroke-dasharray:12 22"/></g><g class="thermal-scans"><path fill="url(#scan-gradient)" d="M-120 210h1140v42H-120z" class="scan-band scan-a"/><path fill="url(#scan-gradient)" d="M-120 610h1140v28H-120z" class="scan-band" style="opacity:.16"/><path d="M0 0h900v7H0z" style="fill:rgba(244,241,234,.42);opacity:.16"/></g></g><path d="m782.2 99.1-10.9-3.2-7.6-8.5-14.3-10.8-8.4-6-8.5-6.1-10.7-1-12.8-.3-18.3-.2-21.5 8.8 8.2 6.1 3.2 9.2-11.6-.8-.2 17.3-15.5 5.4-12.7 4.5-6.9 6.3-.2 10.4 9.6 4.1 10.2 3.5 1.5 10-3.7 8.3-3.9 8.4-3.9 9.4-.5 10.1-6.4 8.1-2.7 8.8 2.2 10.5 9.7 4.6 10 2.8 8.2 4.6 7.8-6.9 2.3-8.9 3.8-8.3 7.6-7.1 7.5-5.7 10.5 1.4 6.8 7.6 6.3 7.5 6.8 7.8 7 5.8 11.2-2.9 9.9 4.8 6.7 7.1 6.5 6.9 6.5 6.9 6.6 7 7.4 7.9 5.7 7.2 5.3 7.6 5.4 7.8 7.4 6.4-4.3 9.9 5.9 7.5 6 7.6 5.7-10.1 5.3-9 5.2-8.6 4.9-9.7 2.7-9.2 3.3-9.2-1.4-9.9-1.2-10.2-.4-9.1-3.5-10.1 1.3-10.6 5.3-8.1.4-9.4-1.2-9.2-2.5-17-1.4-9.7-12.1-7.1-14.3 2.9-11.3-.9-7.4-17-5.3-13ZM647.9 279.9l11.2-.6 7.9 5.2 9.2-6.9 6.8-11.4-2.9-9.3-5.4-8.7-3.1-10.2-4.3-8.3-7.4-7.8-7.8-5.6-9.2-.8-8.6-6.2-.6-9.5 3-8.6 6.7-8.3-1.1-10.5 5.6-8.6 5.1-9 2.2-9.9-4.7-7.8-8.6-3.6-8.6-3.5.4-10.2 6.9-6.3 12.7-4.5 15.5-5.4.1-12.6 8.7-3.9 1.2-9.1-9.7-.1-11.5-.7-11 1.7-11 1.7-9.5-2.5-5.8 8.4-9.2 1.1-12.1.2-9.2 3-24.4 2.9-27.4 1.4-18.2-7.7-12.2 7.6-12.2 4.5-9.1 3.1-9.1 3-9.1 3-21.3 4.5-15.2 3.2-5.7 9-9.4 4.8-3 15.2-12.1 3.1-8.7 6.6-15.4 11.8-13.6 9.2 1.5 9.1 8.6 4.4 9.6 4.8 8.4 4.3 8.1 4.2 8.7 8.3 4.8 10 4.4 9.1 4.3 9 7 14.6 4.6 12 3.3 9.5 7.1 21.1 6.9 9 11.6 15 9.3 12.3 24.7-5.9 23.7-5.9 8.4-9.2 9.3-2 9.2-1.8 6.3 6.5 9.1 2.4 9.4 3.6 8.7-5.6 7.7-5.3 8 4.9 9.5.7 6.1-7.1 9.7-4.7 7.6-5.5 8.5-5.7ZM803 296.8l3.6-8.4-3.6-9.3-5.8-8.3-5.4-7.6-5.5-7.6-6.6-7-6.6-7-6.4-6.7-6.4-6.8-6.5-6.9-7.8-7.3-10.5.5-9 4-4.4-9.6-6.3-8.4-6.6-6.3-7.5-6.2-10.1-1.1-8.5 6.5-6.9 8.1-3.2 8.7-3.8 10.3-8.3 3.8 7.9 6.1 2.7 9.5 4.1 10 5.2 8.2.9 10.7-5.4 8.9-8.9 6.6-12.2-5.2-9.5 3.5-5.9 8.2-8.5 5.5-7.9 6 5.2 9.3 6.8 7.3-.2 9-8.4 6.7-1.6 10.5 3.4 8.9 5.7 8.8 10.3-1.9 8.8 5.1 9.5-1.5 6.4 7.5 4.9 9.3 10.1-2.4 10 2.2 7.8-5.8 5.2-7.6 9-3.1 10.1.8 8.2 3.9 5.5 7.2 8.6-3.9 9.1-2.1 10.3.5 10.7-.2 8 4.4 10.2-1.7 10.3 2.9 4.4-11.2.7-9.4.7-10.1.5-9.7.5-10.1.9-9.3-.4-10.2ZM583 429.6l9.5-2.5 6.9-7.3 9.9 1.8 6 6.8 3.6 8.3 2.9 8.6 2.4 9.4-6.1 7.9-4.7 8.6.1 10.2 5.6 7.7 3.7 8.4 5.7 8.8 9.5 4.4 10.7.7 10.1.5 8.3-3.6 10.3-2.1 7.2 6.3 5.6 7.3 7 7.3 9 .1 9.9-.8 8.3 3.8 9.8 2.9-1.8 9.3 9 4.2 9.1.5 9.9.1 10.1-.6 4.8-8.1 5.7-9.1 8.8-2.6 5-8.3 6.3-7.5 9.4-1.1-2.4-9.4-2.8-9.2 4.3-8.9 2.7-9 2.3-10.4-3.2-8.9-7.2-7.7-3.7-8.7-9.4 2.9-10.4-.5-8.6-2.9-10.4-2.7-10.8-1.2-8.5-5.3-2.6-9.3-1.7-9.8 6.1-7.2-1-10.1 1.4-9.6-4.1-8.6-8.2-5.3-9.6-4.6-10 1.8-8.3 4.9-1.9 10.1-10-.6-9.8 1.4-8.9-1.7-6.2-8.4-8.4-5.5-9.2-1.1-8.6-5.3-8.6 3-4.5-9.3-3.9-9.9 3.6-8.7 6.8-5.9.7-9.3-7.1-7.2-5.4-7.8-9.7 4.2-7.7 7.1-9.4-1.2-7-5.8-7.9 5.8-7.2 5.9-9.6-2.5-3.1 8.8 9.4 1.7 8 6.1 5.6 8.8 4.5 10.3-4.5 10.3 8.4 3.5 7.8 5.3-7.8 6.4-8.4 4.2-9.1-.6-10.2 3.1h-12l5.1 8.9 8.7 8 3 8.5 7 6.8Zm-23.1-44.2 9.2-1.8 9.8-2.1 10.1-1.3 8.6-3.4-4.8-9.8-8.2-4.3 6.3-6.6-5.1-8.4-3.6-10.2-7.8-6.5-9-4.8-8-5.5-5.6-8-8.4-5.9-10.6 3.5-7.9 7.5-24.5 8.1-28.3 7-1.6 14.5-1.6 14.9-12-5.2-8.3 8.3-5.8 10.4-14.6 8-17.2 9.5 1.1 13 4.2 12.1 10.1 13.9 6.1 14.5-8.8 2.3-11.8 8.9 3.2 10 8 9.8 11.3 2 9.6-.3 10 2.9 9.7 8.2 8.6 8.5 9.8 3.6 8.9-3.3 9.8-2.1 5.3-7.8 3.1-9.6 5-12.4 8.9-2.2 9.6-3.9 10.2-5 7.3-5.7 7.4-6.4 4-10 5.6-8.2 3.1-9.5-1.2-9.8-5.8-8.5-10.2-4.1Zm72 233.2 5 8 9 2.3 10-.8 6.8 6.6 8.8 4.3 9-5 9.3-2.8 9.6-.6 8.5-6.6 9.6-3.5 10.2-3.4 9.3-3.2 6.9 6.3 7.2-5.8 6.8-6.6 2.9-8.7 4.9-8.2-7-6.8-7.1-5.9-8.3-4.7-5-8.1 8.4-4 4.4-9.2-8.3-4.9-10-3.5.8-9.2-7.6-5.2-10.3-2.9-10.1.5-10.5-.7-6.1-8.8-5.4-7.5-8.6-4.8-8.6 4.5-10.5.8-10.5.5-9.1-.3-9.7-1.6-3-9.2-3.1-8.5-6.2-8.2-1.1-10.6 1.5-9.2 8.6-3.6-2.3-9.9-2-10.1-2.2-10.4-6.7-6.2-9.1-4.1-7.4 6.7-9.6 3.3-4.9-8.3-6.5-6.8-4.7 8.6-5.4 9.9-3 9.3-8.3 8.1-7.2 5.4-9 5.6-8.8 3-9.6 2.4-5.6 8-2.8 8.8-3.6 10.9-12.3 5.7-10.2 3-6.1 8.2 6.4 6.4 2.3 10.2 8 5.6 5.4 7.3-2.4 8.9-5.6 8.9 9.3 2 5.8-8.1 4.4 8-1 9.3 6 8.3 3 9.9 4.1 8.9-7.2 5.8-8.3-3.8-9.3-5.5-10.5-2-9.9 4-9 1-8.8 4.2-9.1-3.2-9.4 1.1-9.7 2.1-4.7 8.2-4.3 8-7 6.1-8.1 6.4-8.3 3.6 3.9 8.3-1.2 9.3 7.1 5.7 9.6.8 5.8 7.6 8.4 6.1 9.4-.1 9.9 1 9.1-1.6 8.4-4.8 1.9-9.7 5.4-7.9 10.6 1.3 8.3-6.8 8.2 3.9 9.3-3.1 9.1 2.8 7.5 7 8 4.4 8.4 6.4 8.5 4.1 10-1.8 8.7-6.1 8 5.6 7.6 4.9 7.1-6.3-1.8-10-6.2-6.8 8-5.1 8-4.3 7.7-7.1 8.7 5.7 10 1.5-2.6-10.3-8-5.7Zm-123.3-48.5.9-9.2-2.1-8.8-5.5 8.1-9.8 2 1.8-9.3 3.7-9.6-4-8.3-8.7-5-.2-9.5-7.6-5.5.4-10.2-7.7-8.2-8.1-4.7-10 1.8-6 7.6-3.7 8.3-2.3 8.9-5.1 9.2-9.7-.9-9 1.1-9 3.1-3.3-8.9-.3-9.8 1.4-10.2 1.6-8.9-7.7-7.1-8.1 6.1-9.5 2-4.2 8.6-9.9 2.3-8.6 6.3.4 9.4 8.2 6.6 7.2 5.6-5.9 8-10.3-.7 1.7 9.9 1 9.4 9 3.9-8.2 6.5-4.5 7.8 9 4.1-3.3 8.8 5.7 7.1 3.3 8.6 8.7-3 6.2 8.2 5.9 7.5 6 7 6.6 6.2 7.6-6 7.2-5.9 4-8.2 4.8-8.2 7.8-4.7 6.8-6 8.3 4.5 9.4 3.1 7.4-5.2 9-1 8.1-4 9.1 1 9 4.5 7.4 5.2 10.1 1.7.2-9.6-5.9-8.6Zm-138.9-67.3 9.8-2 6.6-6.3 9.4-3.8 9.8 1.8-3.1 9.2 1.6 10.2-1.5 8.9 2.9 10.4 9-2.8 9.4-1.6 9.4.8 5.7-7.2 2.5-8.8 3.8-8.3 3.8-8.3 9.8-.8-.6-9.1-9.1-4.3-11.5-1.5-11 1.9-7-8-7.5-9.2 11.8-14.9h9.7l-4-9.6-9.2-15.7-5.2-9-4.6-13.4 12.8-14.8 13-7.2 11.7-6.3 1-10.8 18.4-.6 3.2-14.3 1.6-14.5-7.9-10.4-11.5-14.9-8.6-11.2-4.7-14.1-3.4-9.8-4.3-12.9-6.6-14.2-5.1-10.6-4.5-9.3-4.3-9.1-5-10.4-9.1-4.7-8.3-4.2-8.1-4.1-9.1-4.7-8.5-4.3-3.8 8.7-5.1 7.8-5.4 8.2-5.8 8.9-5.4 9-3.7 8.4-1.3 10.8-2.9 9.1-8.7 4.5-1.3 9.8 1.3 22 13.1 1.7-2.3 9-3 11.6-3.3 11.5-3.7 11.2-1.9 9.8-1.4 11.9-1.2 9-1.3 11.4-.9 9-1.7 11.9-1.7 10.6-2 9.5-3.8 9.1-7.5 5.3 5.2 8.9-3.1 9.1-4.1 10.2-3.4 8.4 4.3 9.3 8.5 3.8 8.9-1.8-.8 9.4-5.2 8-1 9.1 6.9 7 9-1.3 10.1-3.3 7.4 6.4 9.4-4.9 10.5-1.6Zm23.6 141.9 8.7-4.8-6.5-6.3 5.4-7.8-6-7.2-7.7-4.8-4.5-8.6-9.3.9-5.1-8.3-5.9-7 3-9.7H356l4.4-9.4 8.7-6.2-8.3-5.4-.9-9.8-2.1-9.9 10.4.6 5.4-7.7-6.8-6-8.2-6.6-4.2-9.1-9.5 3.9-8.3-6.3-10.3 2.9-8.8 3.4-9.7-1.1.7-10.5 3.8-9.7 3.6-8.7-10.6-2.4-10.5-4.6-8.6 7.4-3.9 8.4-4.7 9.2-4.8 8.5-5.5 9.6-6.2 9.1-6 7.7-6.7 7.3-6.3 7.5-6.8 8-6 7-7 8.4-5.5 7.3-13.4 1-13.3 3.1-7.4 16.6 5.6 10.7-3.2 16.3-8.6 6.6-9.1 3.5-7.8 5.9-11.5 10.1 10.6 5.1 8.8 5.5 9.4-6.5 10.7.7 8.9 2.5 4.4 9.4 1 9 9.4 3.6 10.4 2 11.3 6.9 9.9 5.6h10.7l9.5-3 7.4-7.5 6.7-7.9 11.5 1.3 9.2 2.3 11-2.3 9.6-4.5 10.2-3.1 9.5-6.3 6.5-8.3 5.4-8.4 11.2-1.5 9.6-4.6 9.4-5.3ZM195 832.9l9.9-.4 7.9-5.6 9.8-7.1 7.5-6.8 5.6-7.3 6.8-8.7 6.9-7.5-1.6-10 .2-9.3-4.9-11.2-5-11.3 2.6-9.8-1.3-10-6-7.5.8-10 7.8-4.7-7.2-8.7-8-6.1-10.7-2.5-10-1.9-4.9-8.9-4.2-10.2-8.3-4-10.2-2.4-7.2 6.5-9.3-1.6-13.9-8.2-10 8.7-7.8 6.9-5.6 10-5.9 10.7-8.1 14.8L90 725.4l-6.8-13.9-9.5 5.6-7.1 13.4-3.3 10.3-6.8 22.1.8 14.5 5.6 11 4.4 8 .2 9.1-1.4 10.4 4.7 8.1 6.9 6 10 2.6 9.7-1-.7-9.3 7.8-5.3 10.1-2.7 9.7 2.9 9.3 5.2 9.2 1.4 9 4.2-.7 9.1 7 6.3 8.9-1.8 9.1 2.9 9.8-4.1ZM421.8 672l2.2-9.9-8.4-6.4-9.7-3.2-7.9-5.1-9.7-3.9-9.6-.6-8.8 5.8-9.8 3.3-10 1.8-5.2 7.9-5.4 7.6-7.9 5.7-9.9 3.8-8.8 4.4-9.4 2.7-10.3.1-10.5-3.7-9.3 4.1-5.5 9.1-9.9 4.5-10.3 2.4-9.5 4.9-5.9 8.6 4.1 8.4 5 7.5-2.1 10 1.1 11.1 6.2 14.1.5 9.4.8 10.3 9 2.4 7.7 6 9.5.7 7-6-6-7.9-1.6-10 3.7-9.2 9.1-3.6 10.1-3.1 5.7 7.2-.3 9.2 9.7-1 9.7 1.9 7.4-5.4 6.9-6.5 7.3-7.7 8.4-5.8 8 5.4 5.1 9.2-3.6 8.9h-9.4l7.8 6.2 9.1.8 9.2 1.8 9.5-3.8 7.9-7.1 3-10 9.2-.6 8 7.8-1.3 10.7-1.4 9 6.4 7.2 4 8.2 4.6 8.7 9.1-3.5 7.7 5.1-2 10.5 10 3.2 9 .3 9.2-2.7 9.9 3.1 9.6-7.2 10.3-3.5 6.1 8 2.2 10.5 8.9 4 4.8-11.5 3.5-8.9 6.1-8.5 9.1-2.8 9.8-2.9 10.5-3.2 10.1-3 7.7-6 2.9-8.9-5.4-9.5-4.7-9.2-1.5-9.6-2.7-10.9-1.5-10.1 9-3.5 9.7 2.3 8.8-2.8 10 2.1 1.9-10.1-2.6-9-6.6-7.9-5.6-8.6-1.3-10.6-7.6-6.5-7.7-7.8-8.8-5.5-9.7 1.6-9.4-2.3-7.5-5.1-7.3-5.4-5.2-7.6-8.9-3.7-9.5.5-9.4-.4-7.9 4.9-9.2-.9-8.6 4.8-3.8 9.1-6.7 7.8-9.9 2.7-10.5-.9H432Zm163.7-1.3-6.9-8.3-4.2 9.4 7.6 6.7 7.5 7 1.1 10.6 5 7.7 7 7.1 2 9.1 1.9 8.8-10.3-.9-8.5 3.1-9.9.3-9.5-3-1.6 9.2 1.5 10.4 2.6 10.2 2.7 9.9 4.7 8.1 4.9 8.8-5.7 7.7-8 5.2-10 3-9.9 3-9.3 2.8-8.6 2.7-5.6 7.9-3.9 8.7-.9 9-9.2 4.2 11.5 5.9 8.6 6.1h10.3l10.2 2 7.3 6.1 8.7 4.8-6.9 6 2.3 9.7-6.3 6.7-5.8 7.7.8 9.7-3.1 8.8-6 7.4 2.7 9.6-3.5 8.8-7.7 6.9-8.7 6.3-1 9 3.8 8.3 6.9 6.1v9.1l8.1 4.3 7-8.1 7.2 7.4 9 2 8-4.3 8.6 3.2 10.1.9 8.2-3.9-5.7-8 6.4-7.3-1.4-9.5 9.7-1.8 4.2-8-1.3-10.4-7-6.8-5.8-7.9 1.9-9.7h-9.4l-10.6.2-6.2-7-3.9-9.6 5.1-8.5 6.6 6.5 7.2-6.8 5.4-7.3 8.2-4.3 7-6.7 6.8-6.2 10-3.5-1-9.3-9 1.6-7-6.9 1.5-9.3 3.1-10.1 6.1-7.7 5-8.2 3.8-9.6 7.8-5.3 2.2-10-1.9-10.2 1.2-9.6 1.7-9.2-1.9-9.2-2.6-9.3-6.5-7.7-5.9-8.1-7.2-8.1.1-10.7-2.7-8.7-8.9-3.5-3.4-9.3-.9-9.2Z" mask="url(#land-mask)" style="fill:none;stroke:rgba(1,3,4,.84);stroke-width:4;stroke-linejoin:round;opacity:.78"/><path d="m680.7 3.1-11.5.3-10.6 1.9-14.5 5.5-11.9 4-17.5.1-14.3.6-11.1 2.7-9.7 4-12.7 6.2-10.8.9-13.7-4.1-14.1-1.2-14.8 2-15.8.2-15.3 3.9-11.3 5.5-10 7.4-13.6 3.6-25.6 7.2-23.1 8.3-10.4 5.3-11.2 7.6-15.7 12.7-8.1 9.5-6.3 10.9-8.8 7.9-13.7 7.5-10.9 8.7-10.9 13.9-6 13.2-2.7 11.2-9.8 21.4-5.4 11.1-5.7 16.8-5.4 10.2-4.2 10.7-3 11.7-.9 11.4 1.1 11.4 2.7 13.1 3.2 10.4-3.6 9.3-3.9 13.2-3 16.5-.8 12.2-3.6 31.2-1.3 9.6-7 10.2-4.9 11.5-3.1 15.2.5 15.3-10.5 24.3-5.3 9.9-7.4 12.9-6.2 8.5-10 8.8-7.6 10.2-7.7 7.9-13.8 4.1-10.4 5.1-9.7 7.1-9.3 9.4-6.6 9.2-5.4 10.4-3.6 10.9-1.9 11.2-8.7 6.6-10.3 9.3-9.1 7.5-10.6 6.2-11.4 8.6-9 10.5-5.4 9.5-3.7 10-2.1 10.4-20 20.3-9.7 10.5-8.2 14.4-4.3 16.3 26.3 21.6 17 11.3L63 788.7l-5.7-11.3 3.6-28.6 9.1-29.5 13.2-7.8 6.8 13.9 17.1-10.1 4.8-8.7 8.7-15.8 9.7-17.5 7.3-6.4 10.5-9.2 15.4-13.5 14.5-6.5 8.5-13.3-4.6-12.6 2.5-22.1 16.1-4.8 15.6-.2 6.2-8.1 7.1-8.6 6.9-7.9 6.1-9.5 9.3-8 7.4-9.4 7.3-10.1 6.4-11.1 4.7-8.4 5.1-9.9 4.6-9.9 4.5-10.3 4.7-11.6 5.1-13 1-10.9.5-9.5 6.1-7.6 2.6-11.1 1.7-10.6 1.7-11.9 1.4-11.9 1.5-12 1.4-11.7 1.5-11.3 2.5-10 3.8-10.8 3.2-11.9 3-11.6-12.4-4.9 3-15.1-6.2-8.8 7.4-10.1 7.3-18.9 5.9-13.7 6-9.1 9.9-15.2 4.9-18.2 9-9.2 9.1-6.1 12-9.2 9.1-6.9 9-3.9 9.1-16.7 9.1-4.6 6-9.2 27.3-5.7 30.5-9.1 18.2-6.5 12.2-7.6 14.6 6.1 15.8.9 15.2-.7 15.3-1.8 18.3-4.1 12.1-.2 10.8-5.7 13.7-1.3 27.4-4.3 9.3-6.3 12.3-7.1 18.3.2 12.7.3-4.8-9.4-7-8.9-6.3-10.5L691 23ZM420.2 143.5 214.4 42.8l-42.2 235.5-26.7 150.8 125.5-2.5 18-.3 15-.1 8.9-8.5 2.7-14.3 2-13.6 1.5-13.9 1.5-13.6 1.4-13.6 2.4-13.7 5.1-12.9 3.3-13.2 3.4-13.3 1.2-9.5 1.1-14 2.6-11.4-4.3-12.6 1.9-13.5 5.7-12.4 7.4-11.8 7.2-11.7 8.2-12.6 3.5-10.5 8.5-6 11.2-9.9 8.6-5.2 12.7-4.5Zm6.6-18.9 1.7-37.5-.1-35.4V40l-.1-22.7-213.9 25.5 205.8 100.7Zm138.8-28 1-94-15.9 1.6-34.1 3.6-88.3 9.5.1 22.7.1 47.1.1 36 12.9-4.4 9.5-2.9 9.5-2.6 9.7-2.2 11.1-3.3 13.3-3.3 13.5 1 13-5.8 12.1-5.4 13.6 3.6ZM282.2 500.8l-84.3 1.4-12.9.2-72.3 1.8-65.6 75.7 167.9-4.1 13.1-2.4 9.2-10.4 6.3-7.4 9.8-10.8 8.7-10.7 7.9-11.3 6.9-12.2ZM735.9 66l-8.6-7.4-5.8-7.7-27.3-60.7-69.7 6.6-57.9 5.8-1 94 14.2-.9 10.1.3 10.5-4.9 10.4 2.2 10.2-1.6 11.4-7.1 14.3-2 9.6-1.5 9.5-1.7 10-1.4 14.9-6.1 11.2-5 13.5 2.4ZM273.8 425.9l-128.3 3.2-8.2 46.9-24.6 28.2 72.3-1.8 12.9-.2 76-1.3 11.3-6 5.9-12.5 3.8-8.9 5.2-12.9 4.9-12.9-.9-13-15.1-8.4Zm-99.7 215.9-8-9.8-107.2 2.7-10.2.3-21.8.6-6.8 18.6-13.2 55.4 14.9-.5 29-.9 58.5-1.5 11 8.9 9.6-2.8 3.2-10.1-3.2-12.9 1.4-13.1 10.9-5.3 13.5-.9 9.6-9.9-.1-13.6-13.1 5.7 10.3-9.1Zm32.5-4.1-6.3-12.5-3.4-9.2-9.3-10.1.7-12.8 13.4-2.6 13.6-1.8 7.2-7.9-175.4-.9-20.2 55.7 21.8-.6 114.1-2.9 9.7 5.7 12.5-1.5ZM21.8 709.1l-14.9.5-4.8 17.2 49.3 45 9.6 18 12.5-3.6 13-3.7 13.2-3.4 10.7-6.1-9-8.2-8.1-10.8-10.5-8.8-.4-11.5 8.6-6.1 9.1-5.5L113 718l-3.7-11.3-58.5 1.5ZM413.3 420l5.1 13-4.4 9.7.5 12.8 13.2-.6 11.9-7.2 8.8-5.4 8.1-5.7 9.8-6.9 11.6-9.3 4.5-12.3 7.5-11.9-5.9-12.6-7.5-11.7-9.5-9.7-12.4-2-9.7 3.6-8.2 10.2-11.9 6.4-12.4-5.1-12.6 3.9 1.8 13.5 4.9 12.6Zm104.8-310.7-4.4 11.7-10.3 4.5 3-9.9 5.5-9.6-9.5 7.8-10.7-1-10.3 5-12.5 4.6-12.3 5-12.7 4.5 12.8 2.5 11.8-5.6-9.8 8.5-13.1-1.4 3.5 8.9 11.8-6.2 11.4-6 7.2-7.2 4.1 8.9-12.4 2.3 10.6 1.2 9.9-3-7.3 6.7 3.1 10.5 11-8 .4 10.2-13.4.2-8.8-6.1-9.3 6.1 7 8.8-7.8-7.3-10.1-.9-9.7 2.7-10.3 3 1.3 11.5 13.7 1.7 10.1-2.1 3.6 8.9 1.8 9.6 9.2 2.5 5.1-13.1 7.4-6.2 9.8-3.9 9.8-9.2 6.1-7.4 12.1-6.6 12.5-5.3 12.1-5.6 12.5-5.3 10.8-7.8h-11.7l-11.7 3-10.6-3.2 6 10.1-13.6-1.8-2.3-9.5-8.5 11-3.8 8.8 3.2-9.9-11.9 6.1 6.9-12.6 7-6.6Zm-29.7 16.2-12.7 3-8.8 10.2-13.3 2.3-10.9 1.6 10.8-4.3 12.9-5.1-9.7 1.3-13-1.3-15.5 4.2-8 6.1-4.1 9.6-7.1 8.7 9-10.5 10.2 5.9-1.6 10.5-3.1 9 1.7 13.5 5.9 10.4-8.8 12.2.1 14.8v10.2l.1 22.4 7.3-6.4 6.9-6.7 7.7-5.9 10.3-9.3 12-6.2-7-7.8-7 8.5-12.2 4.7-10.9 2 7.9-6.5 9.2-3.6-10-6.5 4.9-10.1-9.7-4.2 8.8-6.5-8.6-5.7 9.6-9.2 13.2.8 4.6 8.5 9.3-6.7-12.1-4 10.1-2.1 5.4-8-10.9 8.6-10.1-3.1-13.6-1.8-2.9-12 9.8-3 11.2-3.5 9.7.5 8.7 4.4-8.8-8.1 13.2-2.1 12.1 5.6 10.9-2.2 3.8-9-10.8 6.3-9.6-3.5 8.3-9.3-12.4 3.8h-11.6l10.4-4.2Zm37.9 175.6-12.6 4.8-11.5 2.6-12.7-5-24.9 14.9-13.8 18.1 10.8 8.3 54.4 2 .3-13.7 7.3-12.1 5.3-8.6Zm-104.1-88.2-11.3 1.8-13.1-.7-13.5 1.6-3.9 14.7.1 9.7.1 15 .7 13.7 13.3 3 13.4 1.2 7.3-6.3 7.2-22.3-.1-13.3Zm39.4 131.9-5.6 11.3 12.1 6.2 9.2 9.9 5.1 8.6 6.7 12.1-4.9 11.2 13.5-2.3 9.5-9.8 8.9-4 9.3-3.7-4.6-12.8-5-8.5.1-10.2Zm10.9-121.3-11.2 7.5-9 3.7-10.6 9.2-11.3 9.8-1.4 12.5.1 15.5 49.5-1.4.5-13.4-2.8-13.2-1.5-12.6Zm6 57.3-49.4.9.1 24.4v20.2l.1 12.2 13.1-1.5 22.2-18.6 12.1-16-9-9.6Zm-57.4-130.1-9.3 5.1.7 9.5-3.9-9.2-12.4 5.9-5.8 10.7-10.7 8.4-12.4 4.9 12.4-3.7 12.5-3.8 9.2-3.3-8.1 5-11.6 4.4-8.2 5.2 8.1 8.7 9.2-3.3 8.5-9.5 7.7 5.7-12.7.1 6.9 6.7 12.2-5.4-11.8 6.5-1.4 10-6.3-7.6-13.5.9-8.7-4.3 4.8 12.4-.7 13.7 9.7-10.4 9.7-1.1 10-1.9 11.9-4.9 12.3-4.8-6.2-9.9.1-13.4 3.3-11.2ZM192.4 765.9l-12.1 1-5 12.7-9.4 8-10-1.1-10.9-8.4-10.6-6.7-11.8-4.8-12.2 6.4-2.7 9.8 12.3 6 12.3 4 12.5 4.9 13.2 2.4 12.9-2.1 12.2-7.6 4.6-12.6 12.3 5.6 9.7 8.7 9.5.3 9.3-4 11.4 3.8-4.5-10.3-12.7 5.2-11.2-3.7-7.2-7.8Zm32.3-73.6-8.9 4.1-8.5 10.8-8.2 6.4-9.6-1.4-12.4-4.6-6.7 7 2 11.2 7 9.3 11.6 6 12.6 5.7 7.5 10.5 11.3 2.9 13.6 2.5-12.8-4 11.7-.2-10.4-8-7.4-8.9-13.1-3.3-11.3-6.5-4.8-13.9 13.3-2.2 11.9-3.4 12.3 1.1-11.9-2.3 3.6-12.4ZM681.6 79.8l-13.2 2.4-10.9 5.6-12.1 5.2-10 7.8 12.8-4.5-8.8 7.1 4.4 9.2 9.9-9.3 9.4 1.4 1.3 12.8 12.6-4.7 13.4-2 7.1-7.4-11.5-3.3-11.5 5.7 2-10.3-10 1.3-2.2-9.7ZM429 256.5l-7.9 5.4-7.6 6.6-7.5 11 6.3 13.2 6.5 12.8 10.4 7.5-.1-27v-10.6ZM380.3 220l-6.3 12.3-8.8 10.3-10.3 9-11.7 7.1 6.5 7 6.3 12.5 2.5-11 9.5 6.4-5-9.8 12.7-2.9 4.8-17.2-.1-13.4Zm142-111.6-3.1 12.9-7.5 10.9 7.8 6.4 3.1-9.1 5.1-8.2 8.9 6.7 9.2 4.4-6.9-9.6 9.6 1.2h12.7l12-3.3-12.7-2.2 11.6-5.3-13.4-1.9-13.1-3.9-8.1 8.3Zm88.4-12-6.3 9.2-10.9-1.8-5.2 9.3-10.8-7.8 12.2-4.3-13.1.2-13.2 3.8 9.9 1.2-5.5 8.4-9.3-2.3 9.8 5.2 12.6.2 11 3.2 13.2-2.8 9.6-.9 11.2.9-9.1-9.8ZM154.8 685.3l-8.5 5.9-6.5 8.5 5.8 9.6-12.6 1.5 9.4 6.7 13.5-2.6 14.9-.8.2-12.3-8.1-9.9Zm558-615.9 1.9 9.5 9.4 9.2-8 8.3-11.2 6.9 10.4 4.2 12.3-6.1 13.2-3.5 13.7.2-8.8-7-11.4-2.5-1.9-12.3-3.7 10.6-5.8-9.4ZM208.5 637.7l1.1 10.7 12.2 6.7 12 6.5 9.9 9.3 10.5 7.9 13.2.6-3.2-9.4-12.6-4.8-11.2-7.2-9.5-7.5-11.1-5.2Zm244.3-456.8-6.3 7.2-9.1-6.8-1.8 11.4 4.8 10.6-5 10.3 8.9 3.5-6.5 9.7-9.9 1 12.1-.3 10.2 1.3.5-11.4-.9-14.4 4.3-10.2ZM743 71l-11.9.6 5.3 11.4 10.1 8.1 13.4 5.1 9.1 3.4 13.2 5-7.4-8-7.8-6.7-9.5-8.1ZM186.3 650.4l-13.2 3.3-7.3 10.3 9.4 9.5 10.3-4.4 12.7-2.9Zm223.1-200.5-8.9 9.2-3.4 10.1 9.9 5.7 13 2.6 1.7-13.1Zm76.5-269.3 7.4-11.3-6.4 7.8-6.8 6.7-7.7 8.7-12.9.3-9.1 9.2 2.3 9.3 9.1 3.4-5.7-8.2 11.7-4.8 2 11.1 4.8-12.4ZM193.7 665.7l-2.8 11.1 6.6 12.1 12.9 4L224 691l-5.3-8.8-13.5-1.7Zm583-561.2.8 13.9 2.2 14 9.6 9.1-7.8-5.7-2.2-13.3-.6-9.5 9.9 6.5 5.5 12.4 4 12.7 13.8 5.4 11.6-6.8 10.3-.6-10.3-.9-9.4 2.1-10.1.3-8.5-15.3L787 106Zm-156.1-6.9-9.6 1.5.1 10.6h10.2l9.1 3.3 13.6 2 13-2 8.8-4.5-13.4 1.7-9.2 2.7-13-4.7 10.4-6-10.8 1.1Zm-240.1 162-10.7 4.6.7 11.7-6.5-7.7 4.4 11.3 10.5-1.2 10.7-3.4 12.9-2.2-13.8-.9Zm-22.8 10 6.1 10.6 4 10 13.2-2.9 9.8-10.1 12.8-3.8-13 1-9.7-.5-8.6 6.2Zm39.1-91.2-13.4.7-7.9 8.2-11.2 3.9 11 9.7 9.2 3.1 10.6-.4 10.5.8-10.4-2.1 11-5.3-14-.9 7.9-6-9.2 5.5-9.7 3-8.8-8.4 10.5-8.3Zm256.3-83.9-12.7 4.7-10.5 6 7 6.7 12.3-4.7 13.4.6-13.2 3.7 12.9 3.9-13.1-1.5 13.2 2 10.5-7.8-10.8-2.3-10 1.3 10.7-7.8-12.2 6.5-10.8 6.5 6.1-10.3Zm43.8-26.2-2.4 9.6 7.1 11.8-10.3 3.8 11.3.8 13.7.7-4.5-9.3-7.1-6.5ZM406.1 244.4l-9.6 7.3-2.1 12.5 11.1 7.5 3.2-13.5Z" clip-path="url(#land-clip)" style="fill:none;stroke:rgba(1,5,8,.9);stroke-width:3.5;stroke-linejoin:round;opacity:.84"/><path d="m588.5 668.6 2.8-2.5 3.1-2 1.9-2.4-1.6-3.2-2-3.1 1-3-2.6-2.5-3.4-1.8v-3.5l.9-2.9 2.7-1.5 3.5 1.2 3.6-.4 2.9-2.5 2.9-1.2 3.4-1.8 1.9-2.7 2.5-1.7 2.4 1.9 2.6 2 2.9 1h3.3l3.7.6 2.9.9 1.3-3.1-.1-3.2-3.2-2-1.2-3.6-2.3-2.9-3.5-1.4 1.8-2.4 3.5-.5 3.5-1.2 3.2 1.7 2.4 2.2-.1 3.6 2.3 2.3 2.6 1.8 3.1.4 3.7-.1 3.6.2 2.9-2.1 3.4 1.4 2 2.6 1 3.7 3.5-.1 3.7.2 3.5 1.2 1 3.4 3.1.6 3.2 1.5 2.6-1.8-.8-3.3-.7-3.3-2.5-2.6 1.5-2.7 3.2.8 3.3 1.3 3.2 1.1 3.2 1.4 3.2.7 3.5-1.3 2.4-2.7 3.5-1.7 3.1-2 2.7-2 3.4-.4 3.1-1.9 3.9-1.4 3.1-1 3-.3 3.1-1.9 2.9-1.4 2.7-1.6 3.4.4 2.4 2.7 2.3 2.1 3.6.4 2.9-2.4 2.5-2.6 2.8-1.5 2.3-2.6 2-3.2.5-3.7.4-3.6 3.4-1.7 2.9-.9.2-3-.2-3.2-1.5-2.7-3-.4-1.7-3-3.1-2.5-3-2.2-2.7-2.8-2.7-1.5-3.4-1.7-3.6-1.1h-3.1l-.9-3.3.9-3.5.4-3 3.3-.9 3.2-.5 3.3-1.9.7-3.1 2-2.8.6-3.8.3-3.1h6.6l3.8.1h3l3.2-.3 3-.9 2.6-2.3 1-3.4.9-3.7 1.7-3.2 2.4-2.1 1.8-3.2 3-.5 4-.7 2.5-1.8 1.2-2.8 1.7-2.9 1.7-3.3 1.1-3.4 3.6-1.7 3.4 1.1 3.1-.6 3-1.4 2.8-2.2-1.2-3-2.3-2.3-1.5-2.8-1.8-3.6-.1-3.1-.5-3.3 1.4-3.2 1.3-3.2 1.5-3.1 1.2-2.9 1.2-3.5 1.8-2.5.8-3.7v-3l-.4-3.1-.9-3.1-1.3-2.9-2.6-1.7-3-2.4-1.2-2.9-1.5-2.7-1.7-2.5-.8-3.6-1.2-3.7-1.1-2.9-3.5-.5-1.6 4-2.1 3.3-3.2 2.4-3.9-1-3.5-1.1-3.6-1.5-2.9-.8-3.4-.5-1.5-3-3.1-.1-3.7.1H756l-5.1-1.2-3.3-2.1-2.7-2-3.1-1.7-2.9-1.9.5-3.5.4-3.4.5-3.7-1.4-4.3-1.7-3.8-1.7-3.5 4.1.9 3.1.7 1.5-3.3 3.1-1.3 5 .3-1.7-2.7-2.8-2.4-2.7-2.3-1.8-2.6.6-3.2.7-3.7-1.3-3.2-.3-3.1 3.1-2.6 2.6-2.4 4.1-.3 3.2-1.8 3.5.4 3.2.9 3.2-.9 3.7.8 3.7-.8 3.4.1 3.5.7 2.7 1.5 3.7 1.9 4-.1 3.5-1.4 3.5.2 3.4.8 4.2 1.7 3.7.2 2.4-3 .1-4 .3-4.3.4-5.3.2-3.2.2-3.3.2-3 .3-3.5.2-3.1.2-3.2.1-3 .2-3.3.1-3.4.2-4.1.2-3.7.2-3.6 1-3.8 1.3-2.8 1.3-2.8.3-3.3.1-3.2 2.3-3.2 2-3.1 1.8-3.1 1.6-2.6 1.8-3.1 1.7-2.8 2.1-3.4 2-3.3 1.7-3 1.6-3.1 1.1-3.7.8-3 1.1-3.7 1-3.5.9-3.1 1.2-2.8-.2-3.5-.4-3.5-.4-3.4-.4-3.3-.4-3.8-.4-3.1-.5-4.4.1-3.7.2-3.3.2-3.1-1.7-3.1-2.3-3.1-.7-3.3 1.4-2.9.7-3.4 1.2-4.1 1.5-2.8 3.5-1.1-2.4-3.3 1.9-3.2-.1-5.7-1.2-4-.1-3.4-2.3-15.6-1.4-9.7-1-7-3.2-.3-7.9.2-4.3.2-10 2.7-8.2-.1-3.1-.8-2.5-3.3.1-4.2-5-9.5-1.9-3.1-1.6-2.7-1.8-7.2-2.2-7.9-1.6-3.7-1.7-2.7-5-2.6-3.4.1-3.3-1.4-5.1-5.7-2.5-2.8-5.9-4.3-8.4-6.5-8.4-6-8.5-6.1-2.5-2.1-3.3-3.1-4.9 4.2-12.8-.3-18.3-.2-4.8-.1-16.7 8.9-3.1 2.3-3.1 2.2-5.4.9-5.5.8-5.5.9-5.5.8-5.5.9-3.4-.9-3.3-.9-5.5-1.4-1 3-1.1 3.1-1 3-3.1.4-3 .3-3.1.4-3 .3-9.1-.1-9.2 3-4.9.6-19.5 2.3-27.4 1.4-18.2-7.7-12.2 7.6-7.6 2.8-4.6 1.7-9.1 3.1-9.1 3-9.1 3-6.2 1.3-15.1 3.2-15.2 3.2-3 7.6-2.7 1.4-9.4 4.8-1.7 8.3-1.3 6.9-12.1 3.1-8.7 6.6-15.4 11.8-13.6 9.2-4.5 6.1v4l.1 3.2v3.4l-1.8 2.6-2.5 3.9-2.1 3.2-2.2 3.4-2.3 3.5-2.3 3.5-1.7 2.7-2.1 3.2-2 3-1.9 2.9-1.8 4.2-1.8 4.3-1.7 3.8-.5 4.4v9l.1 3.1-3.6 1.8-3.5 1.8-3.5 1.8-3.6 1.9-.8 4.1 1.1 3.5 2.6 2.6 2.6 2.6-3 17.7 13.1 1.7-.7 3.2-1.6 5.8-1.4 5.8-.9 2.9-2.3 9-1.7 5.4-2.1 5.4-.9 3-1.4 6.2-.6 3.3-.6 3.1-.5 5.7-.9 6.2-.3 4.2-.9 4.8-.5 5.7-.8 5.7-.5 6-.4 3-.4 3.1-.8 5.6-.5 3.2-1.2 6.1-.4 3.9-.9 4.6-1.2 5.5-1.3 3.7-1.7 4.1-3.6 1.4-3.4 2.2-1.3 3 1.4 2.9 2.6 1.5 1.2 4.5-1.3 4-1 3-1.2 2.9-1.3 3.3-1.1 3-1.3 3.1-1.8 4.4-1.6 4-1.2 2.8-2.9 6.8-1.4 3.3-2.9 6.2-1.7 3.5-1.8 3.7-1.6 3.3-1.9 3.6-1.9 3.3-2.9 5.2-2.2 3.8-3.3 5.8-2.1 3.2-1.8 2.5-2.3 3.4-2.3 3-2.3 3-2.4 3-2.3 2.8-2.9 2.7-3.1 3.6-3.7 2.3-2.3 4.9-3.3 3.8-2.1 2.4-3.2 3.7-5.8 6.8-2.5 3-2.1 3-2.1 3-2.6 3-12.7.2-13.3 3.1-5.7 1.7-.4 3.6-1.3 11.3-.8 7.2 6.4 3.5-.9 4.4-2.3 11.9-.7 3.5-3.8 1.6-4.1 1.5-4 1.6-5.1 1.9-7.8 5.9-5.8 5.1-5.7 5-10 8.7-7.8 6.9-1.6 2.9-4 7.1-5.9 10.7-3.5 6.4-4.6 8.4-3.6 6.5L90 725.4l-6.8-13.9-9.5 5.6-3.7 2.2-3.4 11.2-3.3 10.3-.9 2.9-5.9 19.2-2.5 8 3.3 6.5 5.6 11 2.2 2.1 2.1 3.9.1 3 1.8 3.2-.4 3.6-2.3 2.5-1.7 3.1 2.7 2.9-1.4 3.1 2.8 2.7-1.1 3 2.8 2.1 2.6 2.5 3.1 1.7 1.7 3.1 3 1.5 3.7.5 3.4-.3 3.1-.3 3-.4 3.3-.3.4-4-.7-3.4-.7-3.7 1.5-2.6 2.6 1.5 2-2.4 2.9-1.6 2.3 2.1 1.5-2.9 5.4-.3 3.2 2 3.5 1.6 3.8-.5 2.7 1.7 2.8 1.2 3.1 2.1 3.6.5 4.1.6 3 .5 1.8 2.6 3.5.2 2.8 1.5-1.2 3.3-.1 3.8.1 3.7 1.2 2.9 3 .3 4.4.4 3.6-.1 3.4-.9 3.2-2.1.4 3.2 1 3.2 3.5-1 1.9-3.3 2.7-1.9 2.8 2.2 3.4-1.5 2.5-2.1 2.4-2.4 3-2.1 3.1-2.1 3.5.6 4.6.1 2.5-1.8 3.3-2.4 4.1-2.9 4.6-3.3 3.2-2.3 2.7-2 3.4-3.1 2.4-3.1 2.4-3 2.2-2.9 1.9-2.5 3.1-3.9.1-3.8-2.1-2.3.3-3.1 3.2-.2 5-.2 5.8-.4 3-.1 3-.1 2.8 1.8.8 3.3 2.9 1.1 3 .5 3.9.4 2.9-1 3.3-1.9 1.8-2.9-1.4-3.3-2.3-3.1-2.7-3.5-1.6-2.9-.1-3.6 2-3.2-.5-3-3.3-1.2 2.6-1.6 3.2-1.8 2.8-1.5 3.1-1.7 3.8-.9 2.9-1.9 3.6-.6 3-.4 3.2-.6 3.4-.5 2.4 3.2-1.6 3.3-1.3 2.8-.4 3.9.4 3.1 2.2 2.2 2.9-1.2 2.8-1.1 3.6.4 3.1.6 3.7.8 2.9 1.3 3.3-1 3.1-.2-.5-4.1 1.9-2.9 2.9-1.2 1.6-2.6 1.8-2.6 2.7-2.3 1.6-2.9 2.7-1.5 1.7-3.3 2.6-1.5 3.6.2 3.7 1.2 3.3 1.5.9 3.5 3.6.6.1 3-.6 3.6-1.6 3.3-.6 4.1.3 3.1 2 2.5-3.1-.5-3-1.8-3.5-.5-3.3-.4-.8 3.7 2.3 2.4 3.8.5 3.8-.7 3.2-.5 3 .5 3.3.9 3.2-1.6 3.2.8 2.4 2.5 2.9 2 2.8-1.1 2.2-2.7 2-2.4 2.1-2.3 3-2.5 2.4-1.9 2.1-2.8 1-3.4-.2-3.6 2-2.9 2.5-2.6 1.9 2.8 2.4 1.9h4l2.2 2.1 2.3 5.7 2 5.1-1.7 2.7-1.6 2.9-1.6 3.1-1.5 2.9 1.7 3 2.6 3 2.4 2.7 2 2.3 1.4 2.8 1.9 2.6.2 4.1.2 4 4.3 2.6 3.6-1.3 3.5-1.4h3.1l3 1.9 3 2 .8 3-.9 3.3-1 3.8v3.6l2.9.9 3.8-1.3 3 .8 3.6.9 3.5-.5h4.4l2-2.6 4.7-.2 3.4.9 3.6 1.1 2.9 1.1 2.3-3.2 2.6-2.8 4.7-1.2 2.5-2.2 1.2-2.9 3.3.8 3.3.8 1.5 2.9 2.7 3.1 2.2 2.2 2.1 2.7-.4 4.4.4 4.3.5 3.6 4.5 2.2 2.9 1.2 7 2.8 3 1.4 1.2 2.9 3 1.6 3.7.5 3.7.7 4.1-.9 3.7-.8 4 1.1 2.7 1.6-.5 3 1.3 3.2 3.6.8 3.1-.7 2.7-2.4 1.9 2.9 2.2 3-.6 3.7-2.9 2.2-2.4 2.4-1.9 2.9 2.9 1.9 2.3 2.7-2.2 2.4-3.2-1.3-2.2 2.7 1.8 2.6-1.6 2.6.8 3.1h-3.6l-2.1 2.4-.9 3.1-1.8 2.9 2.6 2.6-.3 3.7-.8 3.3-.6 3.2-2 2.8-2 2.3-2.6 2.9-2.2 2.8 2.6 2.3 3.3-1.9 2 2.4-2.6 2.9-1.1 3-2.1 2.4-.7 3.3-1.3 3-3.2-1.2-1.5 3.1-1.5 3.1-2.1 2.6-2.7 1.5-3.3 1.8-1.5 3.1-.3 3.6.2 3.5 1.9 3.2.7 3.7 3.6 1.2 3.2 1.6 1.1 3 .4 3.6.6 3.1-1.6 4.3-1.8 3 3.5 1.1 3.3-1.5 3 .7 2.4-2.4 2.4-3 2.9-2.6 2.2 2.1 1 2.9 3.4 1.5 2.9 1.9 3.6-1.3 3 1.5 2.4-2 3.9-1.6 2.2 2.1 1.9 2.8 3.1-.3 3-1.1 3.5-1.2 3.5-.4 2.7 2.1 3.4.5 3.6-.6 1.7-3.4.8-3.2-3.1-1.7-2.8-2.3-2.7-2.3-1-2.9 3.6-.5 3.1.5 2.6-2.8.1-3.8-1.5-3 .4-3.4 3.2-1.7 3.2-1.4 3.1 1.7 2.3-2.9 1.7-2.8.3-3.9-1.7-2.8-.2-3.4 1.1-3.7 2.3-3.2-3.8-.8-3.5.3-1.8-2.4-3-.8-3.3-1.5-.6-3.6-1.6-2.6 2.1-3 1.4-3.9-2.9-1.8-3.5.2-3.1.1-3.2-.2-3.9-1.2-3 1.3-2.7 1.6-2.9.8v-3l.9-3.7-1.7-3.2-2.6-2.9-1.4-3.5.3-3-1.8-3.2 2.2-2.2 3-1.1 2.6-2.4 3.1 2 1.4 3.4 1.7 3.1 3.3-.1 2.5-2.4.3-3.7 1.9-3.2 2.2-2.9 1.6-2.8 2.8-2.5 3.2-1 3.1-2 3-2.8 1.8-2.7 2.8-1.4 2.1-2.7 2.8-2.1 3.4-1.3 3-1.5 3.4-.9 3-1.9-1.7-3.7-3.2-2.1 2.6-2.1 3.6-1.8-1.6-3.3-4 1.9-3.1 1.5-2.9 1.9-2.8 2.1-3.9-.1-1.5-3-.6-4.1-.3-3.8-.4-3.4 2.2-2.1-.2-3.8-.5-3.1 2.5-1.8 3.2-3.6 2.4-2.6 1.8-2.9 1.2-3.1 2-2.4 1.8-2.7 1.2-3 1.2-3 1.4-3.6 3-.4 2.5-2.8 2.3-2.1 3-2.7.2-3.7-1-3.6-.1-3.7 1.9-2.8h-3.7l.2-4.6.6-3.7.4-4.1 1.2-3.9.3-3.3.2-3.1-.4-3.6-1.6-3.6.2-3.4-.3-3.1-1.4-3-1.8-2.5-2.4-1.9-2.5-3.2-1.5-3.4-1.3-3-3-2.5-2.5-2.7-1.4-2.8-2.5-2.3-2.8-2-.9-3.2.9-3.1 1.1-3 .9-3.4 1.6-3.5-2.3-2.4-3-.1-3.2-1.4-3-1-2.8-1.1-2.8-1.3.1-3.5-.1-3.5-.9-3.6 2.4-2.1-1.3-3.1-3.2-2.1-2.9-1.6-2.9-1.4h-3.7ZM383.8 770l-3.4.9-.5-3.7Z" mask="url(#land-mask)" style="fill:none;stroke:rgba(244,241,234,.78);stroke-width:3.2;stroke-linejoin:round"/><path d="m588.5 668.6 2.8-2.5 3.1-2 1.9-2.4-1.6-3.2-2-3.1 1-3-2.6-2.5-3.4-1.8v-3.5l.9-2.9 2.7-1.5 3.5 1.2 3.6-.4 2.9-2.5 2.9-1.2 3.4-1.8 1.9-2.7 2.5-1.7 2.4 1.9 2.6 2 2.9 1h3.3l3.7.6 2.9.9 1.3-3.1-.1-3.2-3.2-2-1.2-3.6-2.3-2.9-3.5-1.4 1.8-2.4 3.5-.5 3.5-1.2 3.2 1.7 2.4 2.2-.1 3.6 2.3 2.3 2.6 1.8 3.1.4 3.7-.1 3.6.2 2.9-2.1 3.4 1.4 2 2.6 1 3.7 3.5-.1 3.7.2 3.5 1.2 1 3.4 3.1.6 3.2 1.5 2.6-1.8-.8-3.3-.7-3.3-2.5-2.6 1.5-2.7 3.2.8 3.3 1.3 3.2 1.1 3.2 1.4 3.2.7 3.5-1.3 2.4-2.7 3.5-1.7 3.1-2 2.7-2 3.4-.4 3.1-1.9 3.9-1.4 3.1-1 3-.3 3.1-1.9 2.9-1.4 2.7-1.6 3.4.4 2.4 2.7 2.3 2.1 3.6.4 2.9-2.4 2.5-2.6 2.8-1.5 2.3-2.6 2-3.2.5-3.7.4-3.6 3.4-1.7 2.9-.9.2-3-.2-3.2-1.5-2.7-3-.4-1.7-3-3.1-2.5-3-2.2-2.7-2.8-2.7-1.5-3.4-1.7-3.6-1.1h-3.1l-.9-3.3.9-3.5.4-3 3.3-.9 3.2-.5 3.3-1.9.7-3.1 2-2.8.6-3.8.3-3.1h6.6l3.8.1h3l3.2-.3 3-.9 2.6-2.3 1-3.4.9-3.7 1.7-3.2 2.4-2.1 1.8-3.2 3-.5 4-.7 2.5-1.8 1.2-2.8 1.7-2.9 1.7-3.3 1.1-3.4 3.6-1.7 3.4 1.1 3.1-.6 3-1.4 2.8-2.2-1.2-3-2.3-2.3-1.5-2.8-1.8-3.6-.1-3.1-.5-3.3 1.4-3.2 1.3-3.2 1.5-3.1 1.2-2.9 1.2-3.5 1.8-2.5.8-3.7v-3l-.4-3.1-.9-3.1-1.3-2.9-2.6-1.7-3-2.4-1.2-2.9-1.5-2.7-1.7-2.5-.8-3.6-1.2-3.7-1.1-2.9-3.5-.5-1.6 4-2.1 3.3-3.2 2.4-3.9-1-3.5-1.1-3.6-1.5-2.9-.8-3.4-.5-1.5-3-3.1-.1-3.7.1H756l-5.1-1.2-3.3-2.1-2.7-2-3.1-1.7-2.9-1.9.5-3.5.4-3.4.5-3.7-1.4-4.3-1.7-3.8-1.7-3.5 4.1.9 3.1.7 1.5-3.3 3.1-1.3 5 .3-1.7-2.7-2.8-2.4-2.7-2.3-1.8-2.6.6-3.2.7-3.7-1.3-3.2-.3-3.1 3.1-2.6 2.6-2.4 4.1-.3 3.2-1.8 3.5.4 3.2.9 3.2-.9 3.7.8 3.7-.8 3.4.1 3.5.7 2.7 1.5 3.7 1.9 4-.1 3.5-1.4 3.5.2 3.4.8 4.2 1.7 3.7.2 2.4-3 .1-4 .3-4.3.4-5.3.2-3.2.2-3.3.2-3 .3-3.5.2-3.1.2-3.2.1-3 .2-3.3.1-3.4.2-4.1.2-3.7.2-3.6 1-3.8 1.3-2.8 1.3-2.8.3-3.3.1-3.2 2.3-3.2 2-3.1 1.8-3.1 1.6-2.6 1.8-3.1 1.7-2.8 2.1-3.4 2-3.3 1.7-3 1.6-3.1 1.1-3.7.8-3 1.1-3.7 1-3.5.9-3.1 1.2-2.8-.2-3.5-.4-3.5-.4-3.4-.4-3.3-.4-3.8-.4-3.1-.5-4.4.1-3.7.2-3.3.2-3.1-1.7-3.1-2.3-3.1-.7-3.3 1.4-2.9.7-3.4 1.2-4.1 1.5-2.8 3.5-1.1-2.4-3.3 1.9-3.2-.1-5.7-1.2-4-.1-3.4-2.3-15.6-1.4-9.7-1-7-3.2-.3-7.9.2-4.3.2-10 2.7-8.2-.1-3.1-.8-2.5-3.3.1-4.2-5-9.5-1.9-3.1-1.6-2.7-1.8-7.2-2.2-7.9-1.6-3.7-1.7-2.7-5-2.6-3.4.1-3.3-1.4-5.1-5.7-2.5-2.8-5.9-4.3-8.4-6.5-8.4-6-8.5-6.1-2.5-2.1-3.3-3.1-4.9 4.2-12.8-.3-18.3-.2-4.8-.1-16.7 8.9-3.1 2.3-3.1 2.2-5.4.9-5.5.8-5.5.9-5.5.8-5.5.9-3.4-.9-3.3-.9-5.5-1.4-1 3-1.1 3.1-1 3-3.1.4-3 .3-3.1.4-3 .3-9.1-.1-9.2 3-4.9.6-19.5 2.3-27.4 1.4-18.2-7.7-12.2 7.6-7.6 2.8-4.6 1.7-9.1 3.1-9.1 3-9.1 3-6.2 1.3-15.1 3.2-15.2 3.2-3 7.6-2.7 1.4-9.4 4.8-1.7 8.3-1.3 6.9-12.1 3.1-8.7 6.6-15.4 11.8-13.6 9.2-4.5 6.1v4l.1 3.2v3.4l-1.8 2.6-2.5 3.9-2.1 3.2-2.2 3.4-2.3 3.5-2.3 3.5-1.7 2.7-2.1 3.2-2 3-1.9 2.9-1.8 4.2-1.8 4.3-1.7 3.8-.5 4.4v9l.1 3.1-3.6 1.8-3.5 1.8-3.5 1.8-3.6 1.9-.8 4.1 1.1 3.5 2.6 2.6 2.6 2.6-3 17.7 13.1 1.7-.7 3.2-1.6 5.8-1.4 5.8-.9 2.9-2.3 9-1.7 5.4-2.1 5.4-.9 3-1.4 6.2-.6 3.3-.6 3.1-.5 5.7-.9 6.2-.3 4.2-.9 4.8-.5 5.7-.8 5.7-.5 6-.4 3-.4 3.1-.8 5.6-.5 3.2-1.2 6.1-.4 3.9-.9 4.6-1.2 5.5-1.3 3.7-1.7 4.1-3.6 1.4-3.4 2.2-1.3 3 1.4 2.9 2.6 1.5 1.2 4.5-1.3 4-1 3-1.2 2.9-1.3 3.3-1.1 3-1.3 3.1-1.8 4.4-1.6 4-1.2 2.8-2.9 6.8-1.4 3.3-2.9 6.2-1.7 3.5-1.8 3.7-1.6 3.3-1.9 3.6-1.9 3.3-2.9 5.2-2.2 3.8-3.3 5.8-2.1 3.2-1.8 2.5-2.3 3.4-2.3 3-2.3 3-2.4 3-2.3 2.8-2.9 2.7-3.1 3.6-3.7 2.3-2.3 4.9-3.3 3.8-2.1 2.4-3.2 3.7-5.8 6.8-2.5 3-2.1 3-2.1 3-2.6 3-12.7.2-13.3 3.1-5.7 1.7-.4 3.6-1.3 11.3-.8 7.2 6.4 3.5-.9 4.4-2.3 11.9-.7 3.5-3.8 1.6-4.1 1.5-4 1.6-5.1 1.9-7.8 5.9-5.8 5.1-5.7 5-10 8.7-7.8 6.9-1.6 2.9-4 7.1-5.9 10.7-3.5 6.4-4.6 8.4-3.6 6.5L90 725.4l-6.8-13.9-9.5 5.6-3.7 2.2-3.4 11.2-3.3 10.3-.9 2.9-5.9 19.2-2.5 8 3.3 6.5 5.6 11 2.2 2.1 2.1 3.9.1 3 1.8 3.2-.4 3.6-2.3 2.5-1.7 3.1 2.7 2.9-1.4 3.1 2.8 2.7-1.1 3 2.8 2.1 2.6 2.5 3.1 1.7 1.7 3.1 3 1.5 3.7.5 3.4-.3 3.1-.3 3-.4 3.3-.3.4-4-.7-3.4-.7-3.7 1.5-2.6 2.6 1.5 2-2.4 2.9-1.6 2.3 2.1 1.5-2.9 5.4-.3 3.2 2 3.5 1.6 3.8-.5 2.7 1.7 2.8 1.2 3.1 2.1 3.6.5 4.1.6 3 .5 1.8 2.6 3.5.2 2.8 1.5-1.2 3.3-.1 3.8.1 3.7 1.2 2.9 3 .3 4.4.4 3.6-.1 3.4-.9 3.2-2.1.4 3.2 1 3.2 3.5-1 1.9-3.3 2.7-1.9 2.8 2.2 3.4-1.5 2.5-2.1 2.4-2.4 3-2.1 3.1-2.1 3.5.6 4.6.1 2.5-1.8 3.3-2.4 4.1-2.9 4.6-3.3 3.2-2.3 2.7-2 3.4-3.1 2.4-3.1 2.4-3 2.2-2.9 1.9-2.5 3.1-3.9.1-3.8-2.1-2.3.3-3.1 3.2-.2 5-.2 5.8-.4 3-.1 3-.1 2.8 1.8.8 3.3 2.9 1.1 3 .5 3.9.4 2.9-1 3.3-1.9 1.8-2.9-1.4-3.3-2.3-3.1-2.7-3.5-1.6-2.9-.1-3.6 2-3.2-.5-3-3.3-1.2 2.6-1.6 3.2-1.8 2.8-1.5 3.1-1.7 3.8-.9 2.9-1.9 3.6-.6 3-.4 3.2-.6 3.4-.5 2.4 3.2-1.6 3.3-1.3 2.8-.4 3.9.4 3.1 2.2 2.2 2.9-1.2 2.8-1.1 3.6.4 3.1.6 3.7.8 2.9 1.3 3.3-1 3.1-.2-.5-4.1 1.9-2.9 2.9-1.2 1.6-2.6 1.8-2.6 2.7-2.3 1.6-2.9 2.7-1.5 1.7-3.3 2.6-1.5 3.6.2 3.7 1.2 3.3 1.5.9 3.5 3.6.6.1 3-.6 3.6-1.6 3.3-.6 4.1.3 3.1 2 2.5-3.1-.5-3-1.8-3.5-.5-3.3-.4-.8 3.7 2.3 2.4 3.8.5 3.8-.7 3.2-.5 3 .5 3.3.9 3.2-1.6 3.2.8 2.4 2.5 2.9 2 2.8-1.1 2.2-2.7 2-2.4 2.1-2.3 3-2.5 2.4-1.9 2.1-2.8 1-3.4-.2-3.6 2-2.9 2.5-2.6 1.9 2.8 2.4 1.9h4l2.2 2.1 2.3 5.7 2 5.1-1.7 2.7-1.6 2.9-1.6 3.1-1.5 2.9 1.7 3 2.6 3 2.4 2.7 2 2.3 1.4 2.8 1.9 2.6.2 4.1.2 4 4.3 2.6 3.6-1.3 3.5-1.4h3.1l3 1.9 3 2 .8 3-.9 3.3-1 3.8v3.6l2.9.9 3.8-1.3 3 .8 3.6.9 3.5-.5h4.4l2-2.6 4.7-.2 3.4.9 3.6 1.1 2.9 1.1 2.3-3.2 2.6-2.8 4.7-1.2 2.5-2.2 1.2-2.9 3.3.8 3.3.8 1.5 2.9 2.7 3.1 2.2 2.2 2.1 2.7-.4 4.4.4 4.3.5 3.6 4.5 2.2 2.9 1.2 7 2.8 3 1.4 1.2 2.9 3 1.6 3.7.5 3.7.7 4.1-.9 3.7-.8 4 1.1 2.7 1.6-.5 3 1.3 3.2 3.6.8 3.1-.7 2.7-2.4 1.9 2.9 2.2 3-.6 3.7-2.9 2.2-2.4 2.4-1.9 2.9 2.9 1.9 2.3 2.7-2.2 2.4-3.2-1.3-2.2 2.7 1.8 2.6-1.6 2.6.8 3.1h-3.6l-2.1 2.4-.9 3.1-1.8 2.9 2.6 2.6-.3 3.7-.8 3.3-.6 3.2-2 2.8-2 2.3-2.6 2.9-2.2 2.8 2.6 2.3 3.3-1.9 2 2.4-2.6 2.9-1.1 3-2.1 2.4-.7 3.3-1.3 3-3.2-1.2-1.5 3.1-1.5 3.1-2.1 2.6-2.7 1.5-3.3 1.8-1.5 3.1-.3 3.6.2 3.5 1.9 3.2.7 3.7 3.6 1.2 3.2 1.6 1.1 3 .4 3.6.6 3.1-1.6 4.3-1.8 3 3.5 1.1 3.3-1.5 3 .7 2.4-2.4 2.4-3 2.9-2.6 2.2 2.1 1 2.9 3.4 1.5 2.9 1.9 3.6-1.3 3 1.5 2.4-2 3.9-1.6 2.2 2.1 1.9 2.8 3.1-.3 3-1.1 3.5-1.2 3.5-.4 2.7 2.1 3.4.5 3.6-.6 1.7-3.4.8-3.2-3.1-1.7-2.8-2.3-2.7-2.3-1-2.9 3.6-.5 3.1.5 2.6-2.8.1-3.8-1.5-3 .4-3.4 3.2-1.7 3.2-1.4 3.1 1.7 2.3-2.9 1.7-2.8.3-3.9-1.7-2.8-.2-3.4 1.1-3.7 2.3-3.2-3.8-.8-3.5.3-1.8-2.4-3-.8-3.3-1.5-.6-3.6-1.6-2.6 2.1-3 1.4-3.9-2.9-1.8-3.5.2-3.1.1-3.2-.2-3.9-1.2-3 1.3-2.7 1.6-2.9.8v-3l.9-3.7-1.7-3.2-2.6-2.9-1.4-3.5.3-3-1.8-3.2 2.2-2.2 3-1.1 2.6-2.4 3.1 2 1.4 3.4 1.7 3.1 3.3-.1 2.5-2.4.3-3.7 1.9-3.2 2.2-2.9 1.6-2.8 2.8-2.5 3.2-1 3.1-2 3-2.8 1.8-2.7 2.8-1.4 2.1-2.7 2.8-2.1 3.4-1.3 3-1.5 3.4-.9 3-1.9-1.7-3.7-3.2-2.1 2.6-2.1 3.6-1.8-1.6-3.3-4 1.9-3.1 1.5-2.9 1.9-2.8 2.1-3.9-.1-1.5-3-.6-4.1-.3-3.8-.4-3.4 2.2-2.1-.2-3.8-.5-3.1 2.5-1.8 3.2-3.6 2.4-2.6 1.8-2.9 1.2-3.1 2-2.4 1.8-2.7 1.2-3 1.2-3 1.4-3.6 3-.4 2.5-2.8 2.3-2.1 3-2.7.2-3.7-1-3.6-.1-3.7 1.9-2.8h-3.7l.2-4.6.6-3.7.4-4.1 1.2-3.9.3-3.3.2-3.1-.4-3.6-1.6-3.6.2-3.4-.3-3.1-1.4-3-1.8-2.5-2.4-1.9-2.5-3.2-1.5-3.4-1.3-3-3-2.5-2.5-2.7-1.4-2.8-2.5-2.3-2.8-2-.9-3.2.9-3.1 1.1-3 .9-3.4 1.6-3.5-2.3-2.4-3-.1-3.2-1.4-3-1-2.8-1.1-2.8-1.3.1-3.5-.1-3.5-.9-3.6 2.4-2.1-1.3-3.1-3.2-2.1-2.9-1.6-2.9-1.4h-3.7ZM383.8 770l-3.4.9-.5-3.7Z" mask="url(#land-mask)" style="fill:none;stroke:rgba(226,27,35,.62);stroke-width:2;stroke-linejoin:round;opacity:.22"/><path d="m588.5 668.6 2.8-2.5 3.1-2 1.9-2.4-1.6-3.2-2-3.1 1-3-2.6-2.5-3.4-1.8v-3.5l.9-2.9 2.7-1.5 3.5 1.2 3.6-.4 2.9-2.5 2.9-1.2 3.4-1.8 1.9-2.7 2.5-1.7 2.4 1.9 2.6 2 2.9 1h3.3l3.7.6 2.9.9 1.3-3.1-.1-3.2-3.2-2-1.2-3.6-2.3-2.9-3.5-1.4 1.8-2.4 3.5-.5 3.5-1.2 3.2 1.7 2.4 2.2-.1 3.6 2.3 2.3 2.6 1.8 3.1.4 3.7-.1 3.6.2 2.9-2.1 3.4 1.4 2 2.6 1 3.7 3.5-.1 3.7.2 3.5 1.2 1 3.4 3.1.6 3.2 1.5 2.6-1.8-.8-3.3-.7-3.3-2.5-2.6 1.5-2.7 3.2.8 3.3 1.3 3.2 1.1 3.2 1.4 3.2.7 3.5-1.3 2.4-2.7 3.5-1.7 3.1-2 2.7-2 3.4-.4 3.1-1.9 3.9-1.4 3.1-1 3-.3 3.1-1.9 2.9-1.4 2.7-1.6 3.4.4 2.4 2.7 2.3 2.1 3.6.4 2.9-2.4 2.5-2.6 2.8-1.5 2.3-2.6 2-3.2.5-3.7.4-3.6 3.4-1.7 2.9-.9.2-3-.2-3.2-1.5-2.7-3-.4-1.7-3-3.1-2.5-3-2.2-2.7-2.8-2.7-1.5-3.4-1.7-3.6-1.1h-3.1l-.9-3.3.9-3.5.4-3 3.3-.9 3.2-.5 3.3-1.9.7-3.1 2-2.8.6-3.8.3-3.1h6.6l3.8.1h3l3.2-.3 3-.9 2.6-2.3 1-3.4.9-3.7 1.7-3.2 2.4-2.1 1.8-3.2 3-.5 4-.7 2.5-1.8 1.2-2.8 1.7-2.9 1.7-3.3 1.1-3.4 3.6-1.7 3.4 1.1 3.1-.6 3-1.4 2.8-2.2-1.2-3-2.3-2.3-1.5-2.8-1.8-3.6-.1-3.1-.5-3.3 1.4-3.2 1.3-3.2 1.5-3.1 1.2-2.9 1.2-3.5 1.8-2.5.8-3.7v-3l-.4-3.1-.9-3.1-1.3-2.9-2.6-1.7-3-2.4-1.2-2.9-1.5-2.7-1.7-2.5-.8-3.6-1.2-3.7-1.1-2.9-3.5-.5-1.6 4-2.1 3.3-3.2 2.4-3.9-1-3.5-1.1-3.6-1.5-2.9-.8-3.4-.5-1.5-3-3.1-.1-3.7.1H756l-5.1-1.2-3.3-2.1-2.7-2-3.1-1.7-2.9-1.9.5-3.5.4-3.4.5-3.7-1.4-4.3-1.7-3.8-1.7-3.5 4.1.9 3.1.7 1.5-3.3 3.1-1.3 5 .3-1.7-2.7-2.8-2.4-2.7-2.3-1.8-2.6.6-3.2.7-3.7-1.3-3.2-.3-3.1 3.1-2.6 2.6-2.4 4.1-.3 3.2-1.8 3.5.4 3.2.9 3.2-.9 3.7.8 3.7-.8 3.4.1 3.5.7 2.7 1.5 3.7 1.9 4-.1 3.5-1.4 3.5.2 3.4.8 4.2 1.7 3.7.2 2.4-3 .1-4 .3-4.3.4-5.3.2-3.2.2-3.3.2-3 .3-3.5.2-3.1.2-3.2.1-3 .2-3.3.1-3.4.2-4.1.2-3.7.2-3.6 1-3.8 1.3-2.8 1.3-2.8.3-3.3.1-3.2 2.3-3.2 2-3.1 1.8-3.1 1.6-2.6 1.8-3.1 1.7-2.8 2.1-3.4 2-3.3 1.7-3 1.6-3.1 1.1-3.7.8-3 1.1-3.7 1-3.5.9-3.1 1.2-2.8-.2-3.5-.4-3.5-.4-3.4-.4-3.3-.4-3.8-.4-3.1-.5-4.4.1-3.7.2-3.3.2-3.1-1.7-3.1-2.3-3.1-.7-3.3 1.4-2.9.7-3.4 1.2-4.1 1.5-2.8 3.5-1.1-2.4-3.3 1.9-3.2-.1-5.7-1.2-4-.1-3.4-2.3-15.6-1.4-9.7-1-7-3.2-.3-7.9.2-4.3.2-10 2.7-8.2-.1-3.1-.8-2.5-3.3.1-4.2-5-9.5-1.9-3.1-1.6-2.7-1.8-7.2-2.2-7.9-1.6-3.7-1.7-2.7-5-2.6-3.4.1-3.3-1.4-5.1-5.7-2.5-2.8-5.9-4.3-8.4-6.5-8.4-6-8.5-6.1-2.5-2.1-3.3-3.1-4.9 4.2-12.8-.3-18.3-.2-4.8-.1-16.7 8.9-3.1 2.3-3.1 2.2-5.4.9-5.5.8-5.5.9-5.5.8-5.5.9-3.4-.9-3.3-.9-5.5-1.4-1 3-1.1 3.1-1 3-3.1.4-3 .3-3.1.4-3 .3-9.1-.1-9.2 3-4.9.6-19.5 2.3-27.4 1.4-18.2-7.7-12.2 7.6-7.6 2.8-4.6 1.7-9.1 3.1-9.1 3-9.1 3-6.2 1.3-15.1 3.2-15.2 3.2-3 7.6-2.7 1.4-9.4 4.8-1.7 8.3-1.3 6.9-12.1 3.1-8.7 6.6-15.4 11.8-13.6 9.2-4.5 6.1v4l.1 3.2v3.4l-1.8 2.6-2.5 3.9-2.1 3.2-2.2 3.4-2.3 3.5-2.3 3.5-1.7 2.7-2.1 3.2-2 3-1.9 2.9-1.8 4.2-1.8 4.3-1.7 3.8-.5 4.4v9l.1 3.1-3.6 1.8-3.5 1.8-3.5 1.8-3.6 1.9-.8 4.1 1.1 3.5 2.6 2.6 2.6 2.6-3 17.7 13.1 1.7-.7 3.2-1.6 5.8-1.4 5.8-.9 2.9-2.3 9-1.7 5.4-2.1 5.4-.9 3-1.4 6.2-.6 3.3-.6 3.1-.5 5.7-.9 6.2-.3 4.2-.9 4.8-.5 5.7-.8 5.7-.5 6-.4 3-.4 3.1-.8 5.6-.5 3.2-1.2 6.1-.4 3.9-.9 4.6-1.2 5.5-1.3 3.7-1.7 4.1-3.6 1.4-3.4 2.2-1.3 3 1.4 2.9 2.6 1.5 1.2 4.5-1.3 4-1 3-1.2 2.9-1.3 3.3-1.1 3-1.3 3.1-1.8 4.4-1.6 4-1.2 2.8-2.9 6.8-1.4 3.3-2.9 6.2-1.7 3.5-1.8 3.7-1.6 3.3-1.9 3.6-1.9 3.3-2.9 5.2-2.2 3.8-3.3 5.8-2.1 3.2-1.8 2.5-2.3 3.4-2.3 3-2.3 3-2.4 3-2.3 2.8-2.9 2.7-3.1 3.6-3.7 2.3-2.3 4.9-3.3 3.8-2.1 2.4-3.2 3.7-5.8 6.8-2.5 3-2.1 3-2.1 3-2.6 3-12.7.2-13.3 3.1-5.7 1.7-.4 3.6-1.3 11.3-.8 7.2 6.4 3.5-.9 4.4-2.3 11.9-.7 3.5-3.8 1.6-4.1 1.5-4 1.6-5.1 1.9-7.8 5.9-5.8 5.1-5.7 5-10 8.7-7.8 6.9-1.6 2.9-4 7.1-5.9 10.7-3.5 6.4-4.6 8.4-3.6 6.5L90 725.4l-6.8-13.9-9.5 5.6-3.7 2.2-3.4 11.2-3.3 10.3-.9 2.9-5.9 19.2-2.5 8 3.3 6.5 5.6 11 2.2 2.1 2.1 3.9.1 3 1.8 3.2-.4 3.6-2.3 2.5-1.7 3.1 2.7 2.9-1.4 3.1 2.8 2.7-1.1 3 2.8 2.1 2.6 2.5 3.1 1.7 1.7 3.1 3 1.5 3.7.5 3.4-.3 3.1-.3 3-.4 3.3-.3.4-4-.7-3.4-.7-3.7 1.5-2.6 2.6 1.5 2-2.4 2.9-1.6 2.3 2.1 1.5-2.9 5.4-.3 3.2 2 3.5 1.6 3.8-.5 2.7 1.7 2.8 1.2 3.1 2.1 3.6.5 4.1.6 3 .5 1.8 2.6 3.5.2 2.8 1.5-1.2 3.3-.1 3.8.1 3.7 1.2 2.9 3 .3 4.4.4 3.6-.1 3.4-.9 3.2-2.1.4 3.2 1 3.2 3.5-1 1.9-3.3 2.7-1.9 2.8 2.2 3.4-1.5 2.5-2.1 2.4-2.4 3-2.1 3.1-2.1 3.5.6 4.6.1 2.5-1.8 3.3-2.4 4.1-2.9 4.6-3.3 3.2-2.3 2.7-2 3.4-3.1 2.4-3.1 2.4-3 2.2-2.9 1.9-2.5 3.1-3.9.1-3.8-2.1-2.3.3-3.1 3.2-.2 5-.2 5.8-.4 3-.1 3-.1 2.8 1.8.8 3.3 2.9 1.1 3 .5 3.9.4 2.9-1 3.3-1.9 1.8-2.9-1.4-3.3-2.3-3.1-2.7-3.5-1.6-2.9-.1-3.6 2-3.2-.5-3-3.3-1.2 2.6-1.6 3.2-1.8 2.8-1.5 3.1-1.7 3.8-.9 2.9-1.9 3.6-.6 3-.4 3.2-.6 3.4-.5 2.4 3.2-1.6 3.3-1.3 2.8-.4 3.9.4 3.1 2.2 2.2 2.9-1.2 2.8-1.1 3.6.4 3.1.6 3.7.8 2.9 1.3 3.3-1 3.1-.2-.5-4.1 1.9-2.9 2.9-1.2 1.6-2.6 1.8-2.6 2.7-2.3 1.6-2.9 2.7-1.5 1.7-3.3 2.6-1.5 3.6.2 3.7 1.2 3.3 1.5.9 3.5 3.6.6.1 3-.6 3.6-1.6 3.3-.6 4.1.3 3.1 2 2.5-3.1-.5-3-1.8-3.5-.5-3.3-.4-.8 3.7 2.3 2.4 3.8.5 3.8-.7 3.2-.5 3 .5 3.3.9 3.2-1.6 3.2.8 2.4 2.5 2.9 2 2.8-1.1 2.2-2.7 2-2.4 2.1-2.3 3-2.5 2.4-1.9 2.1-2.8 1-3.4-.2-3.6 2-2.9 2.5-2.6 1.9 2.8 2.4 1.9h4l2.2 2.1 2.3 5.7 2 5.1-1.7 2.7-1.6 2.9-1.6 3.1-1.5 2.9 1.7 3 2.6 3 2.4 2.7 2 2.3 1.4 2.8 1.9 2.6.2 4.1.2 4 4.3 2.6 3.6-1.3 3.5-1.4h3.1l3 1.9 3 2 .8 3-.9 3.3-1 3.8v3.6l2.9.9 3.8-1.3 3 .8 3.6.9 3.5-.5h4.4l2-2.6 4.7-.2 3.4.9 3.6 1.1 2.9 1.1 2.3-3.2 2.6-2.8 4.7-1.2 2.5-2.2 1.2-2.9 3.3.8 3.3.8 1.5 2.9 2.7 3.1 2.2 2.2 2.1 2.7-.4 4.4.4 4.3.5 3.6 4.5 2.2 2.9 1.2 7 2.8 3 1.4 1.2 2.9 3 1.6 3.7.5 3.7.7 4.1-.9 3.7-.8 4 1.1 2.7 1.6-.5 3 1.3 3.2 3.6.8 3.1-.7 2.7-2.4 1.9 2.9 2.2 3-.6 3.7-2.9 2.2-2.4 2.4-1.9 2.9 2.9 1.9 2.3 2.7-2.2 2.4-3.2-1.3-2.2 2.7 1.8 2.6-1.6 2.6.8 3.1h-3.6l-2.1 2.4-.9 3.1-1.8 2.9 2.6 2.6-.3 3.7-.8 3.3-.6 3.2-2 2.8-2 2.3-2.6 2.9-2.2 2.8 2.6 2.3 3.3-1.9 2 2.4-2.6 2.9-1.1 3-2.1 2.4-.7 3.3-1.3 3-3.2-1.2-1.5 3.1-1.5 3.1-2.1 2.6-2.7 1.5-3.3 1.8-1.5 3.1-.3 3.6.2 3.5 1.9 3.2.7 3.7 3.6 1.2 3.2 1.6 1.1 3 .4 3.6.6 3.1-1.6 4.3-1.8 3 3.5 1.1 3.3-1.5 3 .7 2.4-2.4 2.4-3 2.9-2.6 2.2 2.1 1 2.9 3.4 1.5 2.9 1.9 3.6-1.3 3 1.5 2.4-2 3.9-1.6 2.2 2.1 1.9 2.8 3.1-.3 3-1.1 3.5-1.2 3.5-.4 2.7 2.1 3.4.5 3.6-.6 1.7-3.4.8-3.2-3.1-1.7-2.8-2.3-2.7-2.3-1-2.9 3.6-.5 3.1.5 2.6-2.8.1-3.8-1.5-3 .4-3.4 3.2-1.7 3.2-1.4 3.1 1.7 2.3-2.9 1.7-2.8.3-3.9-1.7-2.8-.2-3.4 1.1-3.7 2.3-3.2-3.8-.8-3.5.3-1.8-2.4-3-.8-3.3-1.5-.6-3.6-1.6-2.6 2.1-3 1.4-3.9-2.9-1.8-3.5.2-3.1.1-3.2-.2-3.9-1.2-3 1.3-2.7 1.6-2.9.8v-3l.9-3.7-1.7-3.2-2.6-2.9-1.4-3.5.3-3-1.8-3.2 2.2-2.2 3-1.1 2.6-2.4 3.1 2 1.4 3.4 1.7 3.1 3.3-.1 2.5-2.4.3-3.7 1.9-3.2 2.2-2.9 1.6-2.8 2.8-2.5 3.2-1 3.1-2 3-2.8 1.8-2.7 2.8-1.4 2.1-2.7 2.8-2.1 3.4-1.3 3-1.5 3.4-.9 3-1.9-1.7-3.7-3.2-2.1 2.6-2.1 3.6-1.8-1.6-3.3-4 1.9-3.1 1.5-2.9 1.9-2.8 2.1-3.9-.1-1.5-3-.6-4.1-.3-3.8-.4-3.4 2.2-2.1-.2-3.8-.5-3.1 2.5-1.8 3.2-3.6 2.4-2.6 1.8-2.9 1.2-3.1 2-2.4 1.8-2.7 1.2-3 1.2-3 1.4-3.6 3-.4 2.5-2.8 2.3-2.1 3-2.7.2-3.7-1-3.6-.1-3.7 1.9-2.8h-3.7l.2-4.6.6-3.7.4-4.1 1.2-3.9.3-3.3.2-3.1-.4-3.6-1.6-3.6.2-3.4-.3-3.1-1.4-3-1.8-2.5-2.4-1.9-2.5-3.2-1.5-3.4-1.3-3-3-2.5-2.5-2.7-1.4-2.8-2.5-2.3-2.8-2-.9-3.2.9-3.1 1.1-3 .9-3.4 1.6-3.5-2.3-2.4-3-.1-3.2-1.4-3-1-2.8-1.1-2.8-1.3.1-3.5-.1-3.5-.9-3.6 2.4-2.1-1.3-3.1-3.2-2.1-2.9-1.6-2.9-1.4h-3.7ZM383.8 770l-3.4.9-.5-3.7Z" mask="url(#land-mask)" style="fill:none;stroke:rgba(33,70,139,.68);stroke-width:2;stroke-linejoin:round;opacity:.2"/></svg>